<svg width="1235" height="1702" viewBox="0 0 1235 1702" fill="none" xmlns="http://www.w3.org/2000/svg">
<g opacity="0.29827">
<path d="M1179.08 1369.45L614.182 849.143L676 243.501L551 96C451.416 49.3557 459.084 -16.8274 359.5 54.9998C298.946 22.3832 213.971 -27.5007 199.346 21.9995C178.572 92.3104 220.5 121.999 208.724 151C182.73 215.016 194.05 302 208.724 272.501C229.618 230.5 315 346.501 208.724 346.501C122.607 346.501 176.91 471.12 178.572 477.405C182.43 491.899 201.839 487.265 207.478 496.591C214.066 507.581 202.729 552.252 199.346 565.141C192.876 589.556 178.097 609.336 173.822 633.75C166.64 674.738 181.182 671.471 208.724 697.074C255.141 740.258 217.924 785.049 229.618 835.778C239.115 877.122 280.605 898.447 295.8 939.79C307.553 971.63 323.697 979.768 348.746 1003.05C348.153 988.916 335.51 947.216 359.253 950.899C382.817 954.522 373.736 989.331 378.247 1003.89C382.045 1016 408.933 1040.24 386.616 1051.41C379.196 1055.09 358.066 1040.42 349.577 1036.5C355.572 1055.21 351.774 1074.63 361.271 1092.51C372.608 1113.84 384.835 1105.64 399.853 1117.23C415.344 1129.17 413.683 1142.89 406.797 1160.95C399.615 1179.78 392.196 1176.87 403.592 1199.56C411.843 1215.95 425.85 1236.74 437.9 1249.22C444.904 1256.46 452.502 1258.13 459.506 1267.39C465.323 1275.12 463.067 1285.22 470.012 1292.16C481.883 1304.1 502.006 1304.28 511.384 1319.91C521.831 1337.31 509.96 1350.44 540.706 1348.83C542.309 1383.64 548.897 1415.19 548.541 1449.99C565.695 1456.83 593.414 1448.69 611.399 1445.06C629.266 1469.18 652.355 1452.43 672.774 1465.56C681.678 1471.26 679.838 1485.52 685.239 1490.51C696.339 1500.72 704.529 1494.31 718.301 1497.87C728.51 1500.49 736.404 1507.97 746.138 1510.7C755.339 1513.26 770.475 1507.26 777.301 1515.4C785.492 1525.14 771.78 1542.96 784.127 1550.8C794.395 1557.33 809.115 1541.77 819.088 1544.03C830.721 1546.7 864.079 1577.17 872.271 1587.21C881.59 1598.68 890.969 1620.06 896.25 1634.79C904.501 1657.84 903.373 1669.13 920.408 1686C931.27 1696.75 920.942 1697.52 938.63 1700.67C950.204 1702.75 965.518 1694.37 977.212 1693.07C1001.55 1690.39 1026.12 1695.03 1050.1 1690.45C1072.42 1686.18 1093.73 1679.17 1116.64 1675.9C1136.47 1673.05 1171.37 1675.25 1188.94 1665.8C1207.99 1655.64 1209.71 1632.66 1182.17 1636.93C1179.97 1622.26 1189.77 1602 1178.85 1591.85C1194.04 1571.06 1199.56 1556.38 1201.93 1530.96C1203 1519.79 1203.48 1507.44 1209 1498.05C1214.4 1488.78 1229.59 1483.26 1232.56 1475.3C1237.13 1462.94 1229.83 1457.42 1224.25 1450.53C1220.69 1446.07 1210.54 1448.21 1207.63 1444.29C1202.23 1437.1 1207.57 1429.68 1204.6 1422.43C1195.94 1401.46 1185.61 1393.21 1179.08 1369.44C1179.26 1373.42 1179.44 1377.46 1179.2 1381.38" stroke="white" stroke-width="2" stroke-linecap="round" stroke-linejoin="round"/>
</g>
<path d="M1026.11 1374.94C1017.55 1398.32 1037.61 1406.53 1053.67 1421.81C1058.43 1426.34 1058.89 1433.82 1053.88 1438.34C1043.11 1448.07 1002.26 1433.92 1004.85 1446.75C1007.53 1459.99 1042.06 1478.53 1043.62 1479.8C1057.28 1490.93 1061.74 1519.17 1054.21 1534.66C1048.85 1545.68 1013.34 1541.96 1002.17 1538.29C929.024 1514.27 961.985 1517.13 879.817 1509.67C873.526 1509.1 866.935 1508.81 860.894 1510.65C854.671 1512.55 854.869 1520.34 856.957 1524.55C863.876 1538.51 894.849 1562.18 886.514 1580.52C883.956 1586.15 877.963 1589.71 875.264 1595.27C873.15 1599.63 873.385 1604.77 872.445 1609.52" stroke="white" stroke-width="2"/>
<path d="M615.72 1085C604.99 1094.38 573.298 1112.17 575.878 1124.54C578.543 1137.31 608.277 1147.69 609.827 1148.91C623.44 1159.64 627.873 1186.88 620.376 1201.81C615.041 1212.43 579.672 1208.85 568.546 1205.31C495.688 1182.15 575.878 1180.56 553.965 1136.59C526.574 1081.63 471.354 1099.46 442.141 1141.41C400.077 1201.81 558.447 1178.54 538.029 1246.04C523.007 1295.7 461.648 1228.35 453.346 1246.04C450.799 1251.46 444.829 1254.89 442.141 1260.26C440.036 1264.46 440.269 1269.42 439.333 1274" stroke="white" stroke-width="2"/>
<path d="M246.561 897.459C264.64 882.969 250.943 866.496 243.945 846.335C241.871 840.361 244.88 834.148 251.29 832.997C265.073 830.524 294.107 862.016 297.693 850.467C301.396 838.54 279.837 806.657 279.062 804.873C272.256 789.216 281.238 764.409 294.82 755.729C304.484 749.552 333.637 770.051 341.67 778.502C394.273 833.841 366.947 815.278 434.921 861.807C440.125 865.369 445.717 868.856 451.803 870.362C458.071 871.913 461.443 865.579 461.545 861.177C461.885 846.59 445.752 812.352 461.337 801.78C466.119 798.536 472.942 798.648 477.816 795.527C481.635 793.082 483.771 788.848 486.749 785.508" stroke="white" stroke-width="2"/>
<path d="M194.812 507.289C212.891 492.8 208.251 530.33 243.071 530.33C283.251 525.33 262.46 519.83 265.251 495.83C270.251 452.83 205.487 500.83 217.751 461.33C221.454 449.403 188.301 438.499 206.5 421.33C243.071 386.831 261.418 430.011 275 421.33C284.664 415.154 313.967 406.38 322 414.83C374.603 470.169 269.526 454.301 337.5 500.83C364.5 519.312 351.115 472.83 369 457.83C384.5 444.83 380.897 416.012 381 411.61C381.34 397.023 395.915 408.402 411.5 397.83" stroke="white" stroke-width="2"/>
<path fill-rule="evenodd" clip-rule="evenodd" d="M870.5 1617C874.09 1617 877 1614.09 877 1610.5C877 1606.91 874.09 1604 870.5 1604C866.91 1604 864 1606.91 864 1610.5C864 1614.09 866.91 1617 870.5 1617Z" fill="#4AF6CD"/>
<path fill-rule="evenodd" clip-rule="evenodd" d="M437.5 1277C441.09 1277 444 1274.09 444 1270.5C444 1266.91 441.09 1264 437.5 1264C433.91 1264 431 1266.91 431 1270.5C431 1274.09 433.91 1277 437.5 1277Z" fill="#4AF6CD"/>
<path fill-rule="evenodd" clip-rule="evenodd" d="M248.5 901C252.09 901 255 898.09 255 894.5C255 890.91 252.09 888 248.5 888C244.91 888 242 890.91 242 894.5C242 898.09 244.91 901 248.5 901Z" fill="#4AF6CD"/>
<path fill-rule="evenodd" clip-rule="evenodd" d="M194.5 513.831C198.09 513.831 201 510.92 201 507.331C201 503.741 198.09 500.831 194.5 500.831C190.91 500.831 188 503.741 188 507.331C188 510.92 190.91 513.831 194.5 513.831Z" fill="#4AF6CD"/>
<path fill-rule="evenodd" clip-rule="evenodd" d="M738 1527C739.657 1527 741 1525.66 741 1524C741 1522.34 739.657 1521 738 1521C736.343 1521 735 1522.34 735 1524C735 1525.66 736.343 1527 738 1527Z" fill="#4AF6CD"/>
<path fill-rule="evenodd" clip-rule="evenodd" d="M896 1677C897.657 1677 899 1675.66 899 1674C899 1672.34 897.657 1671 896 1671C894.343 1671 893 1672.34 893 1674C893 1675.66 894.343 1677 896 1677Z" fill="#4AF6CD"/>
<path fill-rule="evenodd" clip-rule="evenodd" d="M536 1434C537.657 1434 539 1432.66 539 1431C539 1429.34 537.657 1428 536 1428C534.343 1428 533 1429.34 533 1431C533 1432.66 534.343 1434 536 1434Z" fill="#4AF6CD"/>
<path fill-rule="evenodd" clip-rule="evenodd" d="M479 1340C480.657 1340 482 1338.66 482 1337C482 1335.34 480.657 1334 479 1334C477.343 1334 476 1335.34 476 1337C476 1338.66 477.343 1340 479 1340Z" fill="#4AF6CD"/>
<path fill-rule="evenodd" clip-rule="evenodd" d="M387 1239C388.657 1239 390 1237.66 390 1236C390 1234.34 388.657 1233 387 1233C385.343 1233 384 1234.34 384 1236C384 1237.66 385.343 1239 387 1239Z" fill="#4AF6CD"/>
<path fill-rule="evenodd" clip-rule="evenodd" d="M331 1084C332.657 1084 334 1082.66 334 1081C334 1079.34 332.657 1078 331 1078C329.343 1078 328 1079.34 328 1081C328 1082.66 329.343 1084 331 1084Z" fill="#4AF6CD"/>
<path fill-rule="evenodd" clip-rule="evenodd" d="M213 750.001C214.657 750.001 216 748.658 216 747.001C216 745.344 214.657 744.001 213 744.001C211.343 744.001 210 745.344 210 747.001C210 748.658 211.343 750.001 213 750.001Z" fill="#4AF6CD"/>
<path fill-rule="evenodd" clip-rule="evenodd" d="M140 689.001C141.657 689.001 143 687.658 143 686.001C143 684.344 141.657 683.001 140 683.001C138.343 683.001 137 684.344 137 686.001C137 687.658 138.343 689.001 140 689.001Z" fill="#4AF6CD"/>
<path fill-rule="evenodd" clip-rule="evenodd" d="M179 564C180.657 564 182 562.657 182 561C182 559.343 180.657 558 179 558C177.343 558 176 559.343 176 561C176 562.657 177.343 564 179 564Z" fill="#4AF6CD"/>
<path fill-rule="evenodd" clip-rule="evenodd" d="M231 292C232.657 292 234 290.657 234 289C234 287.343 232.657 286 231 286C229.343 286 228 287.343 228 289C228 290.657 229.343 292 231 292Z" fill="#4AF6CD"/>
<path fill-rule="evenodd" clip-rule="evenodd" d="M286 959.001C287.657 959.001 289 957.658 289 956.001C289 954.344 287.657 953.001 286 953.001C284.343 953.001 283 954.344 283 956.001C283 957.658 284.343 959.001 286 959.001Z" fill="#4AF6CD"/>
<path fill-rule="evenodd" clip-rule="evenodd" d="M1026.5 1382C1030.09 1382 1033 1379.09 1033 1375.5C1033 1371.91 1030.09 1369 1026.5 1369C1022.91 1369 1020 1371.91 1020 1375.5C1020 1379.09 1022.91 1382 1026.5 1382Z" fill="#4AF6CD"/>
<path fill-rule="evenodd" clip-rule="evenodd" d="M617.5 1090C621.09 1090 624 1087.09 624 1083.5C624 1079.91 621.09 1077 617.5 1077C613.91 1077 611 1079.91 611 1083.5C611 1087.09 613.91 1090 617.5 1090Z" fill="#4AF6CD"/>
<path fill-rule="evenodd" clip-rule="evenodd" d="M487.5 786C491.09 786 494 783.09 494 779.5C494 775.91 491.09 773 487.5 773C483.91 773 481 775.91 481 779.5C481 783.09 483.91 786 487.5 786Z" fill="#4AF6CD"/>
<path fill-rule="evenodd" clip-rule="evenodd" d="M413.5 401.831C417.09 401.831 420 398.92 420 395.331C420 391.741 417.09 388.831 413.5 388.831C409.91 388.831 407 391.741 407 395.331C407 398.92 409.91 401.831 413.5 401.831Z" fill="#4AF6CD"/>
<path d="M695.41 1601.98L693.17 1613H691.218L689.186 1603.77L687.138 1613H685.234L682.994 1601.98H684.482L686.258 1611.67L688.386 1601.98H690.002L692.178 1611.67L694.018 1601.98H695.41ZM703.544 1608.54C703.544 1608.78 703.534 1609.03 703.512 1609.29H698.136C698.2 1610.22 698.435 1610.9 698.84 1611.34C699.246 1611.77 699.768 1611.99 700.408 1611.99C700.814 1611.99 701.187 1611.93 701.528 1611.82C701.87 1611.7 702.227 1611.51 702.6 1611.26L703.24 1612.14C702.344 1612.84 701.363 1613.19 700.296 1613.19C699.123 1613.19 698.206 1612.81 697.544 1612.04C696.894 1611.27 696.568 1610.22 696.568 1608.87C696.568 1608 696.707 1607.22 696.984 1606.55C697.272 1605.87 697.678 1605.34 698.2 1604.95C698.734 1604.57 699.358 1604.38 700.072 1604.38C701.192 1604.38 702.051 1604.74 702.648 1605.48C703.246 1606.22 703.544 1607.23 703.544 1608.54ZM702.088 1608.1C702.088 1607.27 701.923 1606.64 701.592 1606.2C701.262 1605.76 700.766 1605.54 700.104 1605.54C698.899 1605.54 698.243 1606.43 698.136 1608.2H702.088V1608.1ZM708.183 1604.38C708.759 1604.38 709.276 1604.46 709.735 1604.62C710.194 1604.78 710.631 1605.02 711.047 1605.34L710.423 1606.26C710.039 1606.02 709.671 1605.84 709.319 1605.72C708.978 1605.6 708.615 1605.54 708.231 1605.54C707.751 1605.54 707.372 1605.65 707.095 1605.85C706.818 1606.04 706.679 1606.31 706.679 1606.65C706.679 1606.99 706.807 1607.26 707.063 1607.45C707.33 1607.64 707.804 1607.83 708.487 1608.01C709.426 1608.24 710.124 1608.56 710.583 1608.97C711.052 1609.37 711.287 1609.93 711.287 1610.63C711.287 1611.46 710.962 1612.1 710.311 1612.54C709.671 1612.97 708.887 1613.19 707.959 1613.19C706.679 1613.19 705.618 1612.82 704.775 1612.09L705.559 1611.19C706.274 1611.74 707.063 1612.01 707.927 1612.01C708.482 1612.01 708.919 1611.9 709.239 1611.67C709.57 1611.44 709.735 1611.12 709.735 1610.73C709.735 1610.44 709.676 1610.21 709.559 1610.04C709.442 1609.86 709.239 1609.7 708.951 1609.58C708.663 1609.44 708.242 1609.29 707.687 1609.14C706.791 1608.91 706.14 1608.59 705.735 1608.2C705.34 1607.81 705.143 1607.3 705.143 1606.7C705.143 1606.26 705.271 1605.86 705.527 1605.51C705.794 1605.15 706.156 1604.87 706.615 1604.68C707.084 1604.48 707.607 1604.38 708.183 1604.38ZM717.62 1612.62C717.065 1613 716.436 1613.19 715.732 1613.19C715.017 1613.19 714.457 1612.99 714.052 1612.58C713.657 1612.17 713.46 1611.57 713.46 1610.79V1605.7H711.988V1604.57H713.46V1602.66L714.932 1602.49V1604.57H716.932L716.772 1605.7H714.932V1610.73C714.932 1611.17 715.006 1611.49 715.156 1611.69C715.316 1611.88 715.577 1611.98 715.94 1611.98C716.27 1611.98 716.644 1611.86 717.06 1611.64L717.62 1612.62ZM726.179 1601.78C726.915 1601.78 727.545 1601.89 728.067 1602.1C728.59 1602.31 729.097 1602.63 729.587 1603.06L728.755 1603.99C728.339 1603.66 727.929 1603.42 727.523 1603.27C727.129 1603.11 726.702 1603.03 726.243 1603.03C725.667 1603.03 725.193 1603.17 724.819 1603.43C724.446 1603.7 724.259 1604.09 724.259 1604.6C724.259 1604.92 724.323 1605.19 724.451 1605.42C724.579 1605.63 724.814 1605.83 725.155 1606.01C725.507 1606.19 726.014 1606.38 726.675 1606.58C727.369 1606.8 727.945 1607.03 728.403 1607.27C728.862 1607.52 729.23 1607.86 729.507 1608.3C729.795 1608.72 729.939 1609.27 729.939 1609.93C729.939 1610.57 729.779 1611.13 729.459 1611.62C729.15 1612.11 728.697 1612.5 728.099 1612.78C727.513 1613.05 726.814 1613.19 726.003 1613.19C724.478 1613.19 723.23 1612.72 722.259 1611.77L723.091 1610.84C723.539 1611.2 723.993 1611.48 724.451 1611.67C724.91 1611.85 725.422 1611.94 725.987 1611.94C726.67 1611.94 727.235 1611.78 727.683 1611.45C728.131 1611.11 728.355 1610.62 728.355 1609.98C728.355 1609.61 728.286 1609.31 728.147 1609.08C728.009 1608.83 727.769 1608.62 727.427 1608.42C727.097 1608.23 726.611 1608.04 725.971 1607.85C724.841 1607.51 724.014 1607.1 723.491 1606.62C722.969 1606.14 722.707 1605.49 722.707 1604.66C722.707 1604.11 722.851 1603.61 723.139 1603.18C723.438 1602.74 723.849 1602.4 724.371 1602.15C724.905 1601.91 725.507 1601.78 726.179 1601.78ZM736.066 1604.38C736.834 1604.38 737.431 1604.61 737.858 1605.06C738.295 1605.52 738.514 1606.15 738.514 1606.95V1613H737.042V1607.16C737.042 1606.56 736.925 1606.14 736.69 1605.9C736.466 1605.65 736.135 1605.53 735.698 1605.53C735.261 1605.53 734.871 1605.66 734.53 1605.91C734.189 1606.17 733.869 1606.53 733.57 1607V1613H732.098V1601.19L733.57 1601.03V1605.74C734.231 1604.83 735.063 1604.38 736.066 1604.38ZM744.641 1604.38C745.825 1604.38 746.742 1604.77 747.393 1605.56C748.054 1606.35 748.385 1607.42 748.385 1608.78C748.385 1609.65 748.236 1610.42 747.937 1611.1C747.638 1611.76 747.206 1612.27 746.641 1612.65C746.076 1613.01 745.404 1613.19 744.625 1613.19C743.441 1613.19 742.518 1612.8 741.857 1612.01C741.196 1611.22 740.865 1610.15 740.865 1608.79C740.865 1607.92 741.014 1607.15 741.313 1606.49C741.612 1605.82 742.044 1605.3 742.609 1604.94C743.174 1604.56 743.852 1604.38 744.641 1604.38ZM744.641 1605.56C743.18 1605.56 742.449 1606.64 742.449 1608.79C742.449 1610.94 743.174 1612.01 744.625 1612.01C746.076 1612.01 746.801 1610.93 746.801 1608.78C746.801 1606.63 746.081 1605.56 744.641 1605.56ZM754.481 1604.38C754.78 1604.38 755.057 1604.41 755.313 1604.47L755.041 1605.91C754.785 1605.85 754.54 1605.82 754.305 1605.82C753.782 1605.82 753.361 1606.01 753.041 1606.39C752.721 1606.78 752.47 1607.37 752.289 1608.18V1613H750.817V1604.57H752.081L752.225 1606.28C752.449 1605.65 752.753 1605.18 753.137 1604.86C753.521 1604.54 753.969 1604.38 754.481 1604.38ZM762.872 1608.54C762.872 1608.78 762.862 1609.03 762.84 1609.29H757.464C757.528 1610.22 757.763 1610.9 758.168 1611.34C758.574 1611.77 759.096 1611.99 759.736 1611.99C760.142 1611.99 760.515 1611.93 760.856 1611.82C761.198 1611.7 761.555 1611.51 761.928 1611.26L762.568 1612.14C761.672 1612.84 760.691 1613.19 759.624 1613.19C758.451 1613.19 757.534 1612.81 756.872 1612.04C756.222 1611.27 755.896 1610.22 755.896 1608.87C755.896 1608 756.035 1607.22 756.312 1606.55C756.6 1605.87 757.006 1605.34 757.528 1604.95C758.062 1604.57 758.686 1604.38 759.4 1604.38C760.52 1604.38 761.379 1604.74 761.976 1605.48C762.574 1606.22 762.872 1607.23 762.872 1608.54ZM761.416 1608.1C761.416 1607.27 761.251 1606.64 760.92 1606.2C760.59 1605.76 760.094 1605.54 759.432 1605.54C758.227 1605.54 757.571 1606.43 757.464 1608.2H761.416V1608.1ZM771.41 1600.18V1614.57H771.058V1600.18H771.41ZM790.237 1613H788.765L788.381 1608.02C788.221 1606.07 788.131 1604.57 788.109 1603.53L785.725 1611.75H784.301L781.789 1603.51C781.789 1604.85 781.72 1606.39 781.581 1608.14L781.213 1613H779.773L780.685 1601.98H782.733L785.053 1609.99L787.261 1601.98H789.325L790.237 1613ZM798.434 1611.03C798.434 1611.37 798.493 1611.63 798.61 1611.8C798.728 1611.96 798.904 1612.08 799.138 1612.17L798.802 1613.19C798.365 1613.14 798.013 1613.02 797.746 1612.82C797.48 1612.63 797.282 1612.33 797.154 1611.93C796.589 1612.77 795.752 1613.19 794.642 1613.19C793.81 1613.19 793.154 1612.96 792.674 1612.49C792.194 1612.02 791.954 1611.41 791.954 1610.65C791.954 1609.75 792.274 1609.06 792.914 1608.58C793.565 1608.1 794.482 1607.86 795.666 1607.86H796.962V1607.24C796.962 1606.64 796.818 1606.22 796.53 1605.96C796.242 1605.7 795.8 1605.58 795.202 1605.58C794.584 1605.58 793.826 1605.73 792.93 1606.02L792.562 1604.95C793.608 1604.57 794.578 1604.38 795.474 1604.38C796.466 1604.38 797.208 1604.62 797.698 1605.11C798.189 1605.59 798.434 1606.28 798.434 1607.18V1611.03ZM794.978 1612.09C795.821 1612.09 796.482 1611.65 796.962 1610.78V1608.84H795.858C794.301 1608.84 793.522 1609.42 793.522 1610.57C793.522 1611.07 793.645 1611.45 793.89 1611.7C794.136 1611.96 794.498 1612.09 794.978 1612.09ZM802.981 1613.19C802.437 1613.19 802.005 1613.03 801.685 1612.71C801.376 1612.38 801.221 1611.92 801.221 1611.34V1601.18L802.693 1601V1611.3C802.693 1611.54 802.731 1611.71 802.805 1611.82C802.891 1611.92 803.029 1611.98 803.221 1611.98C803.424 1611.98 803.605 1611.94 803.765 1611.88L804.149 1612.9C803.797 1613.1 803.408 1613.19 802.981 1613.19ZM807.461 1604.57V1613H805.989V1604.57H807.461ZM806.709 1600.52C807.018 1600.52 807.269 1600.62 807.461 1600.81C807.653 1601 807.749 1601.24 807.749 1601.53C807.749 1601.82 807.653 1602.06 807.461 1602.25C807.269 1602.43 807.018 1602.52 806.709 1602.52C806.41 1602.52 806.165 1602.43 805.973 1602.25C805.781 1602.06 805.685 1601.82 805.685 1601.53C805.685 1601.24 805.781 1601 805.973 1600.81C806.165 1600.62 806.41 1600.52 806.709 1600.52ZM814.36 1604.38C815.32 1604.38 816.083 1604.77 816.648 1605.54C817.214 1606.31 817.496 1607.39 817.496 1608.78C817.496 1609.65 817.363 1610.42 817.096 1611.1C816.83 1611.76 816.446 1612.27 815.944 1612.65C815.443 1613.01 814.856 1613.19 814.184 1613.19C813.299 1613.19 812.552 1612.82 811.944 1612.07L811.8 1613H810.504V1601.18L811.976 1601V1605.62C812.584 1604.79 813.379 1604.38 814.36 1604.38ZM813.832 1612.02C814.483 1612.02 814.99 1611.76 815.352 1611.24C815.726 1610.71 815.912 1609.89 815.912 1608.78C815.912 1607.63 815.742 1606.81 815.4 1606.31C815.059 1605.8 814.574 1605.54 813.944 1605.54C813.198 1605.54 812.542 1605.98 811.976 1606.86V1610.89C812.2 1611.24 812.472 1611.52 812.792 1611.72C813.123 1611.92 813.47 1612.02 813.832 1612.02ZM826.276 1613H825.012L824.9 1611.69C824.58 1612.21 824.212 1612.59 823.796 1612.84C823.38 1613.07 822.874 1613.19 822.276 1613.19C821.54 1613.19 820.964 1612.97 820.548 1612.52C820.132 1612.07 819.924 1611.44 819.924 1610.62V1604.57H821.396V1610.46C821.396 1611.03 821.498 1611.44 821.7 1611.69C821.903 1611.92 822.234 1612.04 822.692 1612.04C823.514 1612.04 824.218 1611.55 824.804 1610.58V1604.57H826.276V1613ZM829.701 1610.97C830.021 1610.97 830.288 1611.07 830.501 1611.29C830.714 1611.5 830.821 1611.76 830.821 1612.07C830.821 1612.4 830.725 1612.78 830.533 1613.21L829.461 1615.66H828.405L829.045 1613C828.906 1612.89 828.794 1612.76 828.709 1612.6C828.634 1612.44 828.597 1612.26 828.597 1612.07C828.597 1611.76 828.704 1611.5 828.917 1611.29C829.13 1611.07 829.392 1610.97 829.701 1610.97ZM841.331 1601.78C841.992 1601.78 842.547 1601.87 842.995 1602.04C843.454 1602.21 843.918 1602.49 844.387 1602.87L843.555 1603.85C842.883 1603.3 842.174 1603.03 841.427 1603.03C840.51 1603.03 839.768 1603.38 839.203 1604.09C838.648 1604.79 838.371 1605.92 838.371 1607.48C838.371 1608.99 838.648 1610.11 839.203 1610.84C839.758 1611.55 840.494 1611.91 841.411 1611.91C841.88 1611.91 842.291 1611.83 842.643 1611.67C842.995 1611.51 843.368 1611.29 843.763 1611L844.515 1611.96C844.174 1612.31 843.736 1612.61 843.203 1612.84C842.67 1613.07 842.056 1613.19 841.363 1613.19C840.467 1613.19 839.667 1612.97 838.963 1612.54C838.27 1612.09 837.726 1611.44 837.331 1610.58C836.947 1609.72 836.755 1608.69 836.755 1607.48C836.755 1606.27 836.958 1605.25 837.363 1604.39C837.768 1603.53 838.318 1602.88 839.011 1602.44C839.704 1602 840.478 1601.78 841.331 1601.78ZM852.3 1613L851.468 1610.23H847.292L846.46 1613H844.924L848.46 1601.98H850.38L853.9 1613H852.3ZM847.66 1609H851.1L849.388 1603.24L847.66 1609Z" fill="white"/>
<path d="M246.414 1262.78C247.15 1262.78 247.779 1262.89 248.302 1263.1C248.824 1263.31 249.331 1263.63 249.822 1264.06L248.99 1264.99C248.574 1264.66 248.163 1264.42 247.758 1264.27C247.363 1264.11 246.936 1264.03 246.478 1264.03C245.902 1264.03 245.427 1264.17 245.054 1264.43C244.68 1264.7 244.494 1265.09 244.494 1265.6C244.494 1265.92 244.558 1266.19 244.686 1266.42C244.814 1266.63 245.048 1266.83 245.39 1267.01C245.742 1267.19 246.248 1267.38 246.91 1267.58C247.603 1267.8 248.179 1268.03 248.638 1268.27C249.096 1268.52 249.464 1268.86 249.742 1269.3C250.03 1269.72 250.174 1270.27 250.174 1270.93C250.174 1271.57 250.014 1272.13 249.694 1272.62C249.384 1273.11 248.931 1273.5 248.334 1273.78C247.747 1274.05 247.048 1274.19 246.238 1274.19C244.712 1274.19 243.464 1273.72 242.494 1272.77L243.326 1271.84C243.774 1272.2 244.227 1272.48 244.686 1272.67C245.144 1272.85 245.656 1272.94 246.222 1272.94C246.904 1272.94 247.47 1272.78 247.918 1272.45C248.366 1272.11 248.59 1271.62 248.59 1270.98C248.59 1270.61 248.52 1270.31 248.382 1270.08C248.243 1269.83 248.003 1269.62 247.662 1269.42C247.331 1269.23 246.846 1269.04 246.206 1268.85C245.075 1268.51 244.248 1268.1 243.726 1267.62C243.203 1267.14 242.942 1266.49 242.942 1265.66C242.942 1265.11 243.086 1264.61 243.374 1264.18C243.672 1263.74 244.083 1263.4 244.606 1263.15C245.139 1262.91 245.742 1262.78 246.414 1262.78ZM255.501 1265.38C256.685 1265.38 257.602 1265.77 258.253 1266.56C258.914 1267.35 259.245 1268.42 259.245 1269.78C259.245 1270.65 259.095 1271.42 258.797 1272.1C258.498 1272.76 258.066 1273.27 257.501 1273.65C256.935 1274.01 256.263 1274.19 255.485 1274.19C254.301 1274.19 253.378 1273.8 252.717 1273.01C252.055 1272.22 251.725 1271.15 251.725 1269.79C251.725 1268.92 251.874 1268.15 252.173 1267.49C252.471 1266.82 252.903 1266.3 253.469 1265.94C254.034 1265.56 254.711 1265.38 255.501 1265.38ZM255.501 1266.56C254.039 1266.56 253.309 1267.64 253.309 1269.79C253.309 1271.94 254.034 1273.01 255.485 1273.01C256.935 1273.01 257.661 1271.93 257.661 1269.78C257.661 1267.63 256.941 1266.56 255.501 1266.56ZM267.948 1274H266.684L266.572 1272.69C266.252 1273.21 265.884 1273.59 265.468 1273.84C265.052 1274.07 264.546 1274.19 263.948 1274.19C263.212 1274.19 262.636 1273.97 262.22 1273.52C261.804 1273.07 261.596 1272.44 261.596 1271.62V1265.57H263.068V1271.46C263.068 1272.03 263.17 1272.44 263.372 1272.69C263.575 1272.92 263.906 1273.04 264.364 1273.04C265.186 1273.04 265.89 1272.55 266.476 1271.58V1265.57H267.948V1274ZM275.245 1273.62C274.69 1274 274.061 1274.19 273.357 1274.19C272.642 1274.19 272.082 1273.99 271.677 1273.58C271.282 1273.17 271.085 1272.57 271.085 1271.79V1266.7H269.613V1265.57H271.085V1263.66L272.557 1263.49V1265.57H274.557L274.397 1266.7H272.557V1271.73C272.557 1272.17 272.631 1272.49 272.781 1272.69C272.941 1272.88 273.202 1272.98 273.565 1272.98C273.895 1272.98 274.269 1272.86 274.685 1272.64L275.245 1273.62ZM280.738 1265.38C281.506 1265.38 282.103 1265.61 282.53 1266.06C282.967 1266.52 283.186 1267.15 283.186 1267.95V1274H281.714V1268.16C281.714 1267.56 281.597 1267.14 281.362 1266.9C281.138 1266.65 280.807 1266.53 280.37 1266.53C279.933 1266.53 279.543 1266.66 279.202 1266.91C278.861 1267.17 278.541 1267.53 278.242 1268V1274H276.77V1262.19L278.242 1262.03V1266.74C278.903 1265.83 279.735 1265.38 280.738 1265.38ZM293.179 1262.78C293.915 1262.78 294.545 1262.89 295.067 1263.1C295.59 1263.31 296.097 1263.63 296.587 1264.06L295.755 1264.99C295.339 1264.66 294.929 1264.42 294.523 1264.27C294.129 1264.11 293.702 1264.03 293.243 1264.03C292.667 1264.03 292.193 1264.17 291.819 1264.43C291.446 1264.7 291.259 1265.09 291.259 1265.6C291.259 1265.92 291.323 1266.19 291.451 1266.42C291.579 1266.63 291.814 1266.83 292.155 1267.01C292.507 1267.19 293.014 1267.38 293.675 1267.58C294.369 1267.8 294.945 1268.03 295.403 1268.27C295.862 1268.52 296.23 1268.86 296.507 1269.3C296.795 1269.72 296.939 1270.27 296.939 1270.93C296.939 1271.57 296.779 1272.13 296.459 1272.62C296.15 1273.11 295.697 1273.5 295.099 1273.78C294.513 1274.05 293.814 1274.19 293.003 1274.19C291.478 1274.19 290.23 1273.72 289.259 1272.77L290.091 1271.84C290.539 1272.2 290.993 1272.48 291.451 1272.67C291.91 1272.85 292.422 1272.94 292.987 1272.94C293.67 1272.94 294.235 1272.78 294.683 1272.45C295.131 1272.11 295.355 1271.62 295.355 1270.98C295.355 1270.61 295.286 1270.31 295.147 1270.08C295.009 1269.83 294.769 1269.62 294.427 1269.42C294.097 1269.23 293.611 1269.04 292.971 1268.85C291.841 1268.51 291.014 1268.1 290.491 1267.62C289.969 1267.14 289.707 1266.49 289.707 1265.66C289.707 1265.11 289.851 1264.61 290.139 1264.18C290.438 1263.74 290.849 1263.4 291.371 1263.15C291.905 1262.91 292.507 1262.78 293.179 1262.78ZM303.066 1265.38C303.834 1265.38 304.431 1265.61 304.858 1266.06C305.295 1266.52 305.514 1267.15 305.514 1267.95V1274H304.042V1268.16C304.042 1267.56 303.925 1267.14 303.69 1266.9C303.466 1266.65 303.135 1266.53 302.698 1266.53C302.261 1266.53 301.871 1266.66 301.53 1266.91C301.189 1267.17 300.869 1267.53 300.57 1268V1274H299.098V1262.19L300.57 1262.03V1266.74C301.231 1265.83 302.063 1265.38 303.066 1265.38ZM311.641 1265.38C312.825 1265.38 313.742 1265.77 314.393 1266.56C315.054 1267.35 315.385 1268.42 315.385 1269.78C315.385 1270.65 315.236 1271.42 314.937 1272.1C314.638 1272.76 314.206 1273.27 313.641 1273.65C313.076 1274.01 312.404 1274.19 311.625 1274.19C310.441 1274.19 309.518 1273.8 308.857 1273.01C308.196 1272.22 307.865 1271.15 307.865 1269.79C307.865 1268.92 308.014 1268.15 308.313 1267.49C308.612 1266.82 309.044 1266.3 309.609 1265.94C310.174 1265.56 310.852 1265.38 311.641 1265.38ZM311.641 1266.56C310.18 1266.56 309.449 1267.64 309.449 1269.79C309.449 1271.94 310.174 1273.01 311.625 1273.01C313.076 1273.01 313.801 1271.93 313.801 1269.78C313.801 1267.63 313.081 1266.56 311.641 1266.56ZM321.481 1265.38C321.78 1265.38 322.057 1265.41 322.313 1265.47L322.041 1266.91C321.785 1266.85 321.54 1266.82 321.305 1266.82C320.782 1266.82 320.361 1267.01 320.041 1267.39C319.721 1267.78 319.47 1268.37 319.289 1269.18V1274H317.817V1265.57H319.081L319.225 1267.28C319.449 1266.65 319.753 1266.18 320.137 1265.86C320.521 1265.54 320.969 1265.38 321.481 1265.38ZM329.872 1269.54C329.872 1269.78 329.862 1270.03 329.84 1270.29H324.464C324.528 1271.22 324.763 1271.9 325.168 1272.34C325.574 1272.77 326.096 1272.99 326.736 1272.99C327.142 1272.99 327.515 1272.93 327.856 1272.82C328.198 1272.7 328.555 1272.51 328.928 1272.26L329.568 1273.14C328.672 1273.84 327.691 1274.19 326.624 1274.19C325.451 1274.19 324.534 1273.81 323.872 1273.04C323.222 1272.27 322.896 1271.22 322.896 1269.87C322.896 1269 323.035 1268.22 323.312 1267.55C323.6 1266.87 324.006 1266.34 324.528 1265.95C325.062 1265.57 325.686 1265.38 326.4 1265.38C327.52 1265.38 328.379 1265.74 328.976 1266.48C329.574 1267.22 329.872 1268.23 329.872 1269.54ZM328.416 1269.1C328.416 1268.27 328.251 1267.64 327.92 1267.2C327.59 1266.76 327.094 1266.54 326.432 1266.54C325.227 1266.54 324.571 1267.43 324.464 1269.2H328.416V1269.1ZM338.41 1261.18V1275.57H338.058V1261.18H338.41ZM357.237 1274H355.765L355.381 1269.02C355.221 1267.07 355.131 1265.57 355.109 1264.53L352.725 1272.75H351.301L348.789 1264.51C348.789 1265.85 348.72 1267.39 348.581 1269.14L348.213 1274H346.773L347.685 1262.98H349.733L352.053 1270.99L354.261 1262.98H356.325L357.237 1274ZM365.434 1272.03C365.434 1272.37 365.493 1272.63 365.61 1272.8C365.728 1272.96 365.904 1273.08 366.138 1273.17L365.802 1274.19C365.365 1274.14 365.013 1274.02 364.746 1273.82C364.48 1273.63 364.282 1273.33 364.154 1272.93C363.589 1273.77 362.752 1274.19 361.642 1274.19C360.81 1274.19 360.154 1273.96 359.674 1273.49C359.194 1273.02 358.954 1272.41 358.954 1271.65C358.954 1270.75 359.274 1270.06 359.914 1269.58C360.565 1269.1 361.482 1268.86 362.666 1268.86H363.962V1268.24C363.962 1267.64 363.818 1267.22 363.53 1266.96C363.242 1266.7 362.8 1266.58 362.202 1266.58C361.584 1266.58 360.826 1266.73 359.93 1267.02L359.562 1265.95C360.608 1265.57 361.578 1265.38 362.474 1265.38C363.466 1265.38 364.208 1265.62 364.698 1266.11C365.189 1266.59 365.434 1267.28 365.434 1268.18V1272.03ZM361.978 1273.09C362.821 1273.09 363.482 1272.65 363.962 1271.78V1269.84H362.858C361.301 1269.84 360.522 1270.42 360.522 1271.57C360.522 1272.07 360.645 1272.45 360.89 1272.7C361.136 1272.96 361.498 1273.09 361.978 1273.09ZM369.981 1274.19C369.437 1274.19 369.005 1274.03 368.685 1273.71C368.376 1273.38 368.221 1272.92 368.221 1272.34V1262.18L369.693 1262V1272.3C369.693 1272.54 369.731 1272.71 369.805 1272.82C369.891 1272.92 370.029 1272.98 370.221 1272.98C370.424 1272.98 370.605 1272.94 370.765 1272.88L371.149 1273.9C370.797 1274.1 370.408 1274.19 369.981 1274.19ZM374.461 1265.57V1274H372.989V1265.57H374.461ZM373.709 1261.52C374.018 1261.52 374.269 1261.62 374.461 1261.81C374.653 1262 374.749 1262.24 374.749 1262.53C374.749 1262.82 374.653 1263.06 374.461 1263.25C374.269 1263.43 374.018 1263.52 373.709 1263.52C373.41 1263.52 373.165 1263.43 372.973 1263.25C372.781 1263.06 372.685 1262.82 372.685 1262.53C372.685 1262.24 372.781 1262 372.973 1261.81C373.165 1261.62 373.41 1261.52 373.709 1261.52ZM381.36 1265.38C382.32 1265.38 383.083 1265.77 383.648 1266.54C384.214 1267.31 384.496 1268.39 384.496 1269.78C384.496 1270.65 384.363 1271.42 384.096 1272.1C383.83 1272.76 383.446 1273.27 382.944 1273.65C382.443 1274.01 381.856 1274.19 381.184 1274.19C380.299 1274.19 379.552 1273.82 378.944 1273.07L378.8 1274H377.504V1262.18L378.976 1262V1266.62C379.584 1265.79 380.379 1265.38 381.36 1265.38ZM380.832 1273.02C381.483 1273.02 381.99 1272.76 382.352 1272.24C382.726 1271.71 382.912 1270.89 382.912 1269.78C382.912 1268.63 382.742 1267.81 382.4 1267.31C382.059 1266.8 381.574 1266.54 380.944 1266.54C380.198 1266.54 379.542 1266.98 378.976 1267.86V1271.89C379.2 1272.24 379.472 1272.52 379.792 1272.72C380.123 1272.92 380.47 1273.02 380.832 1273.02ZM393.276 1274H392.012L391.9 1272.69C391.58 1273.21 391.212 1273.59 390.796 1273.84C390.38 1274.07 389.874 1274.19 389.276 1274.19C388.54 1274.19 387.964 1273.97 387.548 1273.52C387.132 1273.07 386.924 1272.44 386.924 1271.62V1265.57H388.396V1271.46C388.396 1272.03 388.498 1272.44 388.7 1272.69C388.903 1272.92 389.234 1273.04 389.692 1273.04C390.514 1273.04 391.218 1272.55 391.804 1271.58V1265.57H393.276V1274ZM396.701 1271.97C397.021 1271.97 397.288 1272.07 397.501 1272.29C397.714 1272.5 397.821 1272.76 397.821 1273.07C397.821 1273.4 397.725 1273.78 397.533 1274.21L396.461 1276.66H395.405L396.045 1274C395.906 1273.89 395.794 1273.76 395.709 1273.6C395.634 1273.44 395.597 1273.26 395.597 1273.07C395.597 1272.76 395.704 1272.5 395.917 1272.29C396.13 1272.07 396.392 1271.97 396.701 1271.97ZM408.331 1262.78C408.992 1262.78 409.547 1262.87 409.995 1263.04C410.454 1263.21 410.918 1263.49 411.387 1263.87L410.555 1264.85C409.883 1264.3 409.174 1264.03 408.427 1264.03C407.51 1264.03 406.768 1264.38 406.203 1265.09C405.648 1265.79 405.371 1266.92 405.371 1268.48C405.371 1269.99 405.648 1271.11 406.203 1271.84C406.758 1272.55 407.494 1272.91 408.411 1272.91C408.88 1272.91 409.291 1272.83 409.643 1272.67C409.995 1272.51 410.368 1272.29 410.763 1272L411.515 1272.96C411.174 1273.31 410.736 1273.61 410.203 1273.84C409.67 1274.07 409.056 1274.19 408.363 1274.19C407.467 1274.19 406.667 1273.97 405.963 1273.54C405.27 1273.09 404.726 1272.44 404.331 1271.58C403.947 1270.72 403.755 1269.69 403.755 1268.48C403.755 1267.27 403.958 1266.25 404.363 1265.39C404.768 1264.53 405.318 1263.88 406.011 1263.44C406.704 1263 407.478 1262.78 408.331 1262.78ZM419.3 1274L418.468 1271.23H414.292L413.46 1274H411.924L415.46 1262.98H417.38L420.9 1274H419.3ZM414.66 1270H418.1L416.388 1264.24L414.66 1270Z" fill="white"/>
<path d="M73.0211 885.976L72.8451 887.192H68.5731V890.792H72.2851V892.008H68.5731V895.784H73.1491V897H67.0531V885.976H73.0211ZM81.0281 895.032C81.0281 895.373 81.0868 895.629 81.2041 895.8C81.3215 895.96 81.4975 896.083 81.7321 896.168L81.3961 897.192C80.9588 897.139 80.6068 897.016 80.3401 896.824C80.0735 896.632 79.8761 896.333 79.7481 895.928C79.1828 896.771 78.3455 897.192 77.2361 897.192C76.4041 897.192 75.7481 896.957 75.2681 896.488C74.7881 896.019 74.5481 895.405 74.5481 894.648C74.5481 893.752 74.8681 893.064 75.5081 892.584C76.1588 892.104 77.0761 891.864 78.2601 891.864H79.5561V891.24C79.5561 890.643 79.4121 890.216 79.1241 889.96C78.8361 889.704 78.3935 889.576 77.7961 889.576C77.1775 889.576 76.4201 889.725 75.5241 890.024L75.1561 888.952C76.2015 888.568 77.1721 888.376 78.0681 888.376C79.0601 888.376 79.8015 888.621 80.2921 889.112C80.7828 889.592 81.0281 890.28 81.0281 891.176V895.032ZM77.5721 896.088C78.4148 896.088 79.0761 895.651 79.5561 894.776V892.84H78.4521C76.8948 892.84 76.1161 893.416 76.1161 894.568C76.1161 895.069 76.2388 895.448 76.4841 895.704C76.7295 895.96 77.0921 896.088 77.5721 896.088ZM86.183 888.376C86.759 888.376 87.2763 888.456 87.735 888.616C88.1937 888.776 88.631 889.016 89.047 889.336L88.423 890.264C88.039 890.019 87.671 889.837 87.319 889.72C86.9777 889.603 86.615 889.544 86.231 889.544C85.751 889.544 85.3723 889.645 85.095 889.848C84.8177 890.04 84.679 890.307 84.679 890.648C84.679 890.989 84.807 891.256 85.063 891.448C85.3297 891.64 85.8043 891.827 86.487 892.008C87.4257 892.243 88.1243 892.563 88.583 892.968C89.0523 893.373 89.287 893.928 89.287 894.632C89.287 895.464 88.9617 896.099 88.311 896.536C87.671 896.973 86.887 897.192 85.959 897.192C84.679 897.192 83.6177 896.824 82.775 896.088L83.559 895.192C84.2737 895.736 85.063 896.008 85.927 896.008C86.4817 896.008 86.919 895.896 87.239 895.672C87.5697 895.437 87.735 895.123 87.735 894.728C87.735 894.44 87.6763 894.211 87.559 894.04C87.4417 893.859 87.239 893.704 86.951 893.576C86.663 893.437 86.2417 893.293 85.687 893.144C84.791 892.909 84.1403 892.595 83.735 892.2C83.3403 891.805 83.143 891.304 83.143 890.696C83.143 890.259 83.271 889.864 83.527 889.512C83.7937 889.149 84.1563 888.872 84.615 888.68C85.0843 888.477 85.607 888.376 86.183 888.376ZM95.6198 896.616C95.0651 897 94.4358 897.192 93.7318 897.192C93.0171 897.192 92.4571 896.989 92.0518 896.584C91.6571 896.168 91.4598 895.571 91.4598 894.792V889.704H89.9878V888.568H91.4598V886.664L92.9318 886.488V888.568H94.9318L94.7718 889.704H92.9318V894.728C92.9318 895.165 93.0064 895.485 93.1558 895.688C93.3158 895.88 93.5771 895.976 93.9398 895.976C94.2704 895.976 94.6438 895.864 95.0598 895.64L95.6198 896.616ZM104.179 885.784C104.915 885.784 105.545 885.891 106.067 886.104C106.59 886.307 107.097 886.627 107.587 887.064L106.755 887.992C106.339 887.661 105.929 887.421 105.523 887.272C105.129 887.112 104.702 887.032 104.243 887.032C103.667 887.032 103.193 887.165 102.819 887.432C102.446 887.699 102.259 888.088 102.259 888.6C102.259 888.92 102.323 889.192 102.451 889.416C102.579 889.629 102.814 889.827 103.155 890.008C103.507 890.189 104.014 890.381 104.675 890.584C105.369 890.797 105.945 891.027 106.403 891.272C106.862 891.517 107.23 891.859 107.507 892.296C107.795 892.723 107.939 893.267 107.939 893.928C107.939 894.568 107.779 895.133 107.459 895.624C107.15 896.115 106.697 896.499 106.099 896.776C105.513 897.053 104.814 897.192 104.003 897.192C102.478 897.192 101.23 896.717 100.259 895.768L101.091 894.84C101.539 895.203 101.993 895.48 102.451 895.672C102.91 895.853 103.422 895.944 103.987 895.944C104.67 895.944 105.235 895.779 105.683 895.448C106.131 895.107 106.355 894.616 106.355 893.976C106.355 893.613 106.286 893.315 106.147 893.08C106.009 892.835 105.769 892.616 105.427 892.424C105.097 892.232 104.611 892.04 103.971 891.848C102.841 891.507 102.014 891.096 101.491 890.616C100.969 890.136 100.707 889.485 100.707 888.664C100.707 888.109 100.851 887.613 101.139 887.176C101.438 886.739 101.849 886.397 102.371 886.152C102.905 885.907 103.507 885.784 104.179 885.784ZM114.066 888.376C114.834 888.376 115.431 888.605 115.858 889.064C116.295 889.523 116.514 890.152 116.514 890.952V897H115.042V891.16C115.042 890.563 114.925 890.141 114.69 889.896C114.466 889.651 114.135 889.528 113.698 889.528C113.261 889.528 112.871 889.656 112.53 889.912C112.189 890.168 111.869 890.531 111.57 891V897H110.098V885.192L111.57 885.032V889.736C112.231 888.829 113.063 888.376 114.066 888.376ZM122.641 888.376C123.825 888.376 124.742 888.771 125.393 889.56C126.054 890.349 126.385 891.421 126.385 892.776C126.385 893.651 126.236 894.424 125.937 895.096C125.638 895.757 125.206 896.275 124.641 896.648C124.076 897.011 123.404 897.192 122.625 897.192C121.441 897.192 120.518 896.797 119.857 896.008C119.196 895.219 118.865 894.147 118.865 892.792C118.865 891.917 119.014 891.149 119.313 890.488C119.612 889.816 120.044 889.299 120.609 888.936C121.174 888.563 121.852 888.376 122.641 888.376ZM122.641 889.56C121.18 889.56 120.449 890.637 120.449 892.792C120.449 894.936 121.174 896.008 122.625 896.008C124.076 896.008 124.801 894.931 124.801 892.776C124.801 890.632 124.081 889.56 122.641 889.56ZM132.481 888.376C132.78 888.376 133.057 888.408 133.313 888.472L133.041 889.912C132.785 889.848 132.54 889.816 132.305 889.816C131.782 889.816 131.361 890.008 131.041 890.392C130.721 890.776 130.47 891.373 130.289 892.184V897H128.817V888.568H130.081L130.225 890.28C130.449 889.651 130.753 889.176 131.137 888.856C131.521 888.536 131.969 888.376 132.481 888.376ZM140.872 892.536C140.872 892.781 140.862 893.032 140.84 893.288H135.464C135.528 894.216 135.763 894.899 136.168 895.336C136.574 895.773 137.096 895.992 137.736 895.992C138.142 895.992 138.515 895.933 138.856 895.816C139.198 895.699 139.555 895.512 139.928 895.256L140.568 896.136C139.672 896.84 138.691 897.192 137.624 897.192C136.451 897.192 135.534 896.808 134.872 896.04C134.222 895.272 133.896 894.216 133.896 892.872C133.896 891.997 134.035 891.224 134.312 890.552C134.6 889.869 135.006 889.336 135.528 888.952C136.062 888.568 136.686 888.376 137.4 888.376C138.52 888.376 139.379 888.744 139.976 889.48C140.574 890.216 140.872 891.235 140.872 892.536ZM139.416 892.104C139.416 891.272 139.251 890.637 138.92 890.2C138.59 889.763 138.094 889.544 137.432 889.544C136.227 889.544 135.571 890.429 135.464 892.2H139.416V892.104ZM149.41 884.184V898.568H149.058V884.184H149.41ZM168.237 897H166.765L166.381 892.024C166.221 890.072 166.131 888.573 166.109 887.528L163.725 895.752H162.301L159.789 887.512C159.789 888.845 159.72 890.387 159.581 892.136L159.213 897H157.773L158.685 885.976H160.733L163.053 893.992L165.261 885.976H167.325L168.237 897ZM176.434 895.032C176.434 895.373 176.493 895.629 176.61 895.8C176.728 895.96 176.904 896.083 177.138 896.168L176.802 897.192C176.365 897.139 176.013 897.016 175.746 896.824C175.48 896.632 175.282 896.333 175.154 895.928C174.589 896.771 173.752 897.192 172.642 897.192C171.81 897.192 171.154 896.957 170.674 896.488C170.194 896.019 169.954 895.405 169.954 894.648C169.954 893.752 170.274 893.064 170.914 892.584C171.565 892.104 172.482 891.864 173.666 891.864H174.962V891.24C174.962 890.643 174.818 890.216 174.53 889.96C174.242 889.704 173.8 889.576 173.202 889.576C172.584 889.576 171.826 889.725 170.93 890.024L170.562 888.952C171.608 888.568 172.578 888.376 173.474 888.376C174.466 888.376 175.208 888.621 175.698 889.112C176.189 889.592 176.434 890.28 176.434 891.176V895.032ZM172.978 896.088C173.821 896.088 174.482 895.651 174.962 894.776V892.84H173.858C172.301 892.84 171.522 893.416 171.522 894.568C171.522 895.069 171.645 895.448 171.89 895.704C172.136 895.96 172.498 896.088 172.978 896.088ZM180.981 897.192C180.437 897.192 180.005 897.032 179.685 896.712C179.376 896.381 179.221 895.923 179.221 895.336V885.176L180.693 885V895.304C180.693 895.539 180.731 895.709 180.805 895.816C180.891 895.923 181.029 895.976 181.221 895.976C181.424 895.976 181.605 895.944 181.765 895.88L182.149 896.904C181.797 897.096 181.408 897.192 180.981 897.192ZM185.461 888.568V897H183.989V888.568H185.461ZM184.709 884.52C185.018 884.52 185.269 884.616 185.461 884.808C185.653 885 185.749 885.24 185.749 885.528C185.749 885.816 185.653 886.056 185.461 886.248C185.269 886.429 185.018 886.52 184.709 886.52C184.41 886.52 184.165 886.429 183.973 886.248C183.781 886.056 183.685 885.816 183.685 885.528C183.685 885.24 183.781 885 183.973 884.808C184.165 884.616 184.41 884.52 184.709 884.52ZM192.36 888.376C193.32 888.376 194.083 888.765 194.648 889.544C195.214 890.312 195.496 891.389 195.496 892.776C195.496 893.651 195.363 894.424 195.096 895.096C194.83 895.757 194.446 896.275 193.944 896.648C193.443 897.011 192.856 897.192 192.184 897.192C191.299 897.192 190.552 896.819 189.944 896.072L189.8 897H188.504V885.176L189.976 885V889.624C190.584 888.792 191.379 888.376 192.36 888.376ZM191.832 896.024C192.483 896.024 192.99 895.763 193.352 895.24C193.726 894.707 193.912 893.885 193.912 892.776C193.912 891.635 193.742 890.813 193.4 890.312C193.059 889.8 192.574 889.544 191.944 889.544C191.198 889.544 190.542 889.981 189.976 890.856V894.888C190.2 895.24 190.472 895.517 190.792 895.72C191.123 895.923 191.47 896.024 191.832 896.024ZM204.276 897H203.012L202.9 895.688C202.58 896.211 202.212 896.595 201.796 896.84C201.38 897.075 200.874 897.192 200.276 897.192C199.54 897.192 198.964 896.968 198.548 896.52C198.132 896.072 197.924 895.437 197.924 894.616V888.568H199.396V894.456C199.396 895.032 199.498 895.443 199.7 895.688C199.903 895.923 200.234 896.04 200.692 896.04C201.514 896.04 202.218 895.555 202.804 894.584V888.568H204.276V897ZM207.701 894.968C208.021 894.968 208.288 895.075 208.501 895.288C208.714 895.501 208.821 895.763 208.821 896.072C208.821 896.403 208.725 896.781 208.533 897.208L207.461 899.656H206.405L207.045 897C206.906 896.893 206.794 896.76 206.709 896.6C206.634 896.44 206.597 896.264 206.597 896.072C206.597 895.763 206.704 895.501 206.917 895.288C207.13 895.075 207.392 894.968 207.701 894.968ZM219.331 885.784C219.992 885.784 220.547 885.869 220.995 886.04C221.454 886.211 221.918 886.488 222.387 886.872L221.555 887.848C220.883 887.304 220.174 887.032 219.427 887.032C218.51 887.032 217.768 887.384 217.203 888.088C216.648 888.792 216.371 889.923 216.371 891.48C216.371 892.995 216.648 894.115 217.203 894.84C217.758 895.555 218.494 895.912 219.411 895.912C219.88 895.912 220.291 895.832 220.643 895.672C220.995 895.512 221.368 895.288 221.763 895L222.515 895.96C222.174 896.312 221.736 896.605 221.203 896.84C220.67 897.075 220.056 897.192 219.363 897.192C218.467 897.192 217.667 896.973 216.963 896.536C216.27 896.088 215.726 895.437 215.331 894.584C214.947 893.72 214.755 892.685 214.755 891.48C214.755 890.275 214.958 889.245 215.363 888.392C215.768 887.528 216.318 886.877 217.011 886.44C217.704 886.003 218.478 885.784 219.331 885.784ZM230.3 897L229.468 894.232H225.292L224.46 897H222.924L226.46 885.976H228.38L231.9 897H230.3ZM225.66 893H229.1L227.388 887.24L225.66 893Z" fill="white"/>
<path d="M9.35925 509.831H7.32725L2.84725 500.471C2.91125 501.207 2.95925 501.889 2.99125 502.519C3.03392 503.137 3.05525 503.889 3.05525 504.775V509.831H1.63125V498.807H3.61525L8.14325 508.183C8.11125 507.905 8.06858 507.42 8.01525 506.727C7.96192 506.033 7.93525 505.399 7.93525 504.823V498.807H9.35925V509.831ZM15.6411 501.207C16.8251 501.207 17.7425 501.601 18.3931 502.391C19.0545 503.18 19.3851 504.252 19.3851 505.607C19.3851 506.481 19.2358 507.255 18.9371 507.927C18.6385 508.588 18.2065 509.105 17.6411 509.479C17.0758 509.841 16.4038 510.023 15.6251 510.023C14.4411 510.023 13.5185 509.628 12.8571 508.839C12.1958 508.049 11.8651 506.977 11.8651 505.623C11.8651 504.748 12.0145 503.98 12.3131 503.319C12.6118 502.647 13.0438 502.129 13.6091 501.767C14.1745 501.393 14.8518 501.207 15.6411 501.207ZM15.6411 502.391C14.1798 502.391 13.4491 503.468 13.4491 505.623C13.4491 507.767 14.1745 508.839 15.6251 508.839C17.0758 508.839 17.8011 507.761 17.8011 505.607C17.8011 503.463 17.0811 502.391 15.6411 502.391ZM25.4809 501.207C25.7795 501.207 26.0569 501.239 26.3129 501.303L26.0409 502.743C25.7849 502.679 25.5395 502.647 25.3049 502.647C24.7822 502.647 24.3609 502.839 24.0409 503.223C23.7209 503.607 23.4702 504.204 23.2889 505.015V509.831H21.8169V501.399H23.0809L23.2249 503.111C23.4489 502.481 23.7529 502.007 24.1369 501.687C24.5209 501.367 24.9689 501.207 25.4809 501.207ZM32.2448 509.447C31.6901 509.831 31.0608 510.023 30.3568 510.023C29.6421 510.023 29.0821 509.82 28.6768 509.415C28.2821 508.999 28.0848 508.401 28.0848 507.623V502.535H26.6128V501.399H28.0848V499.495L29.5568 499.319V501.399H31.5568L31.3968 502.535H29.5568V507.559C29.5568 507.996 29.6314 508.316 29.7808 508.519C29.9408 508.711 30.2021 508.807 30.5648 508.807C30.8954 508.807 31.2688 508.695 31.6848 508.471L32.2448 509.447ZM37.738 501.207C38.506 501.207 39.1033 501.436 39.53 501.895C39.9673 502.353 40.186 502.983 40.186 503.783V509.831H38.714V503.991C38.714 503.393 38.5967 502.972 38.362 502.727C38.138 502.481 37.8073 502.359 37.37 502.359C36.9327 502.359 36.5433 502.487 36.202 502.743C35.8607 502.999 35.5407 503.361 35.242 503.831V509.831H33.77V498.023L35.242 497.863V502.567C35.9033 501.66 36.7353 501.207 37.738 501.207ZM50.1794 498.615C50.9154 498.615 51.5447 498.721 52.0674 498.935C52.59 499.137 53.0967 499.457 53.5874 499.895L52.7554 500.823C52.3394 500.492 51.9287 500.252 51.5234 500.103C51.1287 499.943 50.702 499.863 50.2434 499.863C49.6674 499.863 49.1927 499.996 48.8194 500.263C48.446 500.529 48.2594 500.919 48.2594 501.431C48.2594 501.751 48.3234 502.023 48.4514 502.247C48.5794 502.46 48.814 502.657 49.1554 502.839C49.5074 503.02 50.014 503.212 50.6754 503.415C51.3687 503.628 51.9447 503.857 52.4034 504.103C52.862 504.348 53.23 504.689 53.5074 505.127C53.7954 505.553 53.9394 506.097 53.9394 506.759C53.9394 507.399 53.7794 507.964 53.4594 508.455C53.15 508.945 52.6967 509.329 52.0994 509.607C51.5127 509.884 50.814 510.023 50.0034 510.023C48.478 510.023 47.23 509.548 46.2594 508.599L47.0914 507.671C47.5394 508.033 47.9927 508.311 48.4514 508.503C48.91 508.684 49.422 508.775 49.9874 508.775C50.67 508.775 51.2354 508.609 51.6834 508.279C52.1314 507.937 52.3554 507.447 52.3554 506.807C52.3554 506.444 52.286 506.145 52.1474 505.911C52.0087 505.665 51.7687 505.447 51.4274 505.255C51.0967 505.063 50.6114 504.871 49.9714 504.679C48.8407 504.337 48.014 503.927 47.4914 503.447C46.9687 502.967 46.7074 502.316 46.7074 501.495C46.7074 500.94 46.8514 500.444 47.1394 500.007C47.438 499.569 47.8487 499.228 48.3714 498.983C48.9047 498.737 49.5074 498.615 50.1794 498.615ZM60.0661 501.207C60.8341 501.207 61.4315 501.436 61.8581 501.895C62.2955 502.353 62.5141 502.983 62.5141 503.783V509.831H61.0421V503.991C61.0421 503.393 60.9248 502.972 60.6901 502.727C60.4661 502.481 60.1355 502.359 59.6981 502.359C59.2608 502.359 58.8715 502.487 58.5301 502.743C58.1888 502.999 57.8688 503.361 57.5701 503.831V509.831H56.0981V498.023L57.5701 497.863V502.567C58.2315 501.66 59.0635 501.207 60.0661 501.207ZM68.6411 501.207C69.8251 501.207 70.7425 501.601 71.3931 502.391C72.0545 503.18 72.3851 504.252 72.3851 505.607C72.3851 506.481 72.2358 507.255 71.9371 507.927C71.6385 508.588 71.2065 509.105 70.6411 509.479C70.0758 509.841 69.4038 510.023 68.6251 510.023C67.4411 510.023 66.5185 509.628 65.8571 508.839C65.1958 508.049 64.8651 506.977 64.8651 505.623C64.8651 504.748 65.0145 503.98 65.3131 503.319C65.6118 502.647 66.0438 502.129 66.6091 501.767C67.1745 501.393 67.8518 501.207 68.6411 501.207ZM68.6411 502.391C67.1798 502.391 66.4491 503.468 66.4491 505.623C66.4491 507.767 67.1745 508.839 68.6251 508.839C70.0758 508.839 70.8011 507.761 70.8011 505.607C70.8011 503.463 70.0811 502.391 68.6411 502.391ZM78.4809 501.207C78.7795 501.207 79.0569 501.239 79.3129 501.303L79.0409 502.743C78.7849 502.679 78.5395 502.647 78.3049 502.647C77.7822 502.647 77.3609 502.839 77.0409 503.223C76.7209 503.607 76.4702 504.204 76.2889 505.015V509.831H74.8169V501.399H76.0809L76.2249 503.111C76.4489 502.481 76.7529 502.007 77.1369 501.687C77.5209 501.367 77.9689 501.207 78.4809 501.207ZM86.8724 505.367C86.8724 505.612 86.8617 505.863 86.8404 506.119H81.4644C81.5284 507.047 81.763 507.729 82.1684 508.167C82.5737 508.604 83.0964 508.823 83.7364 508.823C84.1417 508.823 84.515 508.764 84.8564 508.647C85.1977 508.529 85.555 508.343 85.9284 508.087L86.5684 508.967C85.6724 509.671 84.691 510.023 83.6244 510.023C82.451 510.023 81.5337 509.639 80.8724 508.871C80.2217 508.103 79.8964 507.047 79.8964 505.703C79.8964 504.828 80.035 504.055 80.3124 503.383C80.6004 502.7 81.0057 502.167 81.5284 501.783C82.0617 501.399 82.6857 501.207 83.4004 501.207C84.5204 501.207 85.379 501.575 85.9764 502.311C86.5737 503.047 86.8724 504.065 86.8724 505.367ZM85.4164 504.935C85.4164 504.103 85.251 503.468 84.9204 503.031C84.5897 502.593 84.0937 502.375 83.4324 502.375C82.227 502.375 81.571 503.26 81.4644 505.031H85.4164V504.935ZM95.4095 497.015V511.399H95.0575V497.015H95.4095ZM114.237 509.831H112.765L112.381 504.855C112.221 502.903 112.131 501.404 112.109 500.359L109.725 508.583H108.301L105.789 500.343C105.789 501.676 105.72 503.217 105.581 504.967L105.213 509.831H103.773L104.685 498.807H106.733L109.053 506.823L111.261 498.807H113.325L114.237 509.831ZM122.434 507.863C122.434 508.204 122.493 508.46 122.61 508.631C122.728 508.791 122.904 508.913 123.138 508.999L122.802 510.023C122.365 509.969 122.013 509.847 121.746 509.655C121.48 509.463 121.282 509.164 121.154 508.759C120.589 509.601 119.752 510.023 118.642 510.023C117.81 510.023 117.154 509.788 116.674 509.319C116.194 508.849 115.954 508.236 115.954 507.479C115.954 506.583 116.274 505.895 116.914 505.415C117.565 504.935 118.482 504.695 119.666 504.695H120.962V504.071C120.962 503.473 120.818 503.047 120.53 502.791C120.242 502.535 119.8 502.407 119.202 502.407C118.584 502.407 117.826 502.556 116.93 502.855L116.562 501.783C117.608 501.399 118.578 501.207 119.474 501.207C120.466 501.207 121.208 501.452 121.698 501.943C122.189 502.423 122.434 503.111 122.434 504.007V507.863ZM118.978 508.919C119.821 508.919 120.482 508.481 120.962 507.607V505.671H119.858C118.301 505.671 117.522 506.247 117.522 507.399C117.522 507.9 117.645 508.279 117.89 508.535C118.136 508.791 118.498 508.919 118.978 508.919ZM126.981 510.023C126.437 510.023 126.005 509.863 125.685 509.543C125.376 509.212 125.221 508.753 125.221 508.167V498.007L126.693 497.831V508.135C126.693 508.369 126.731 508.54 126.805 508.647C126.891 508.753 127.029 508.807 127.221 508.807C127.424 508.807 127.605 508.775 127.765 508.711L128.149 509.735C127.797 509.927 127.408 510.023 126.981 510.023ZM131.461 501.399V509.831H129.989V501.399H131.461ZM130.709 497.351C131.018 497.351 131.269 497.447 131.461 497.639C131.653 497.831 131.749 498.071 131.749 498.359C131.749 498.647 131.653 498.887 131.461 499.079C131.269 499.26 131.018 499.351 130.709 499.351C130.41 499.351 130.165 499.26 129.973 499.079C129.781 498.887 129.685 498.647 129.685 498.359C129.685 498.071 129.781 497.831 129.973 497.639C130.165 497.447 130.41 497.351 130.709 497.351ZM138.36 501.207C139.32 501.207 140.083 501.596 140.648 502.375C141.214 503.143 141.496 504.22 141.496 505.607C141.496 506.481 141.363 507.255 141.096 507.927C140.83 508.588 140.446 509.105 139.944 509.479C139.443 509.841 138.856 510.023 138.184 510.023C137.299 510.023 136.552 509.649 135.944 508.903L135.8 509.831H134.504V498.007L135.976 497.831V502.455C136.584 501.623 137.379 501.207 138.36 501.207ZM137.832 508.855C138.483 508.855 138.99 508.593 139.352 508.071C139.726 507.537 139.912 506.716 139.912 505.607C139.912 504.465 139.742 503.644 139.4 503.143C139.059 502.631 138.574 502.375 137.944 502.375C137.198 502.375 136.542 502.812 135.976 503.687V507.719C136.2 508.071 136.472 508.348 136.792 508.551C137.123 508.753 137.47 508.855 137.832 508.855ZM150.276 509.831H149.012L148.9 508.519C148.58 509.041 148.212 509.425 147.796 509.671C147.38 509.905 146.874 510.023 146.276 510.023C145.54 510.023 144.964 509.799 144.548 509.351C144.132 508.903 143.924 508.268 143.924 507.447V501.399H145.396V507.287C145.396 507.863 145.498 508.273 145.7 508.519C145.903 508.753 146.234 508.871 146.692 508.871C147.514 508.871 148.218 508.385 148.804 507.415V501.399H150.276V509.831ZM153.701 507.799C154.021 507.799 154.288 507.905 154.501 508.119C154.714 508.332 154.821 508.593 154.821 508.903C154.821 509.233 154.725 509.612 154.533 510.039L153.461 512.487H152.405L153.045 509.831C152.906 509.724 152.794 509.591 152.709 509.431C152.634 509.271 152.597 509.095 152.597 508.903C152.597 508.593 152.704 508.332 152.917 508.119C153.13 507.905 153.392 507.799 153.701 507.799ZM165.331 498.615C165.992 498.615 166.547 498.7 166.995 498.871C167.454 499.041 167.918 499.319 168.387 499.703L167.555 500.679C166.883 500.135 166.174 499.863 165.427 499.863C164.51 499.863 163.768 500.215 163.203 500.919C162.648 501.623 162.371 502.753 162.371 504.311C162.371 505.825 162.648 506.945 163.203 507.671C163.758 508.385 164.494 508.743 165.411 508.743C165.88 508.743 166.291 508.663 166.643 508.503C166.995 508.343 167.368 508.119 167.763 507.831L168.515 508.791C168.174 509.143 167.736 509.436 167.203 509.671C166.67 509.905 166.056 510.023 165.363 510.023C164.467 510.023 163.667 509.804 162.963 509.367C162.27 508.919 161.726 508.268 161.331 507.415C160.947 506.551 160.755 505.516 160.755 504.311C160.755 503.105 160.958 502.076 161.363 501.223C161.768 500.359 162.318 499.708 163.011 499.271C163.704 498.833 164.478 498.615 165.331 498.615ZM176.3 509.831L175.468 507.063H171.292L170.46 509.831H168.924L172.46 498.807H174.38L177.9 509.831H176.3ZM171.66 505.831H175.1L173.388 500.071L171.66 505.831Z" fill="white"/>
<path d="M895.378 1366.78C896.039 1366.78 896.594 1366.87 897.042 1367.04C897.501 1367.21 897.965 1367.49 898.434 1367.87L897.602 1368.85C896.93 1368.3 896.221 1368.03 895.474 1368.03C894.557 1368.03 893.815 1368.38 893.25 1369.09C892.695 1369.79 892.418 1370.92 892.418 1372.48C892.418 1373.99 892.695 1375.11 893.25 1375.84C893.805 1376.55 894.541 1376.91 895.458 1376.91C895.927 1376.91 896.338 1376.83 896.69 1376.67C897.042 1376.51 897.415 1376.29 897.81 1376L898.562 1376.96C898.221 1377.31 897.783 1377.61 897.25 1377.84C896.717 1378.07 896.103 1378.19 895.41 1378.19C894.514 1378.19 893.714 1377.97 893.01 1377.54C892.317 1377.09 891.773 1376.44 891.378 1375.58C890.994 1374.72 890.802 1373.69 890.802 1372.48C890.802 1371.27 891.005 1370.25 891.41 1369.39C891.815 1368.53 892.365 1367.88 893.058 1367.44C893.751 1367 894.525 1366.78 895.378 1366.78ZM906.401 1378H905.137L905.025 1376.69C904.705 1377.21 904.337 1377.59 903.921 1377.84C903.505 1378.07 902.999 1378.19 902.401 1378.19C901.665 1378.19 901.089 1377.97 900.673 1377.52C900.257 1377.07 900.049 1376.44 900.049 1375.62V1369.57H901.521V1375.46C901.521 1376.03 901.623 1376.44 901.825 1376.69C902.028 1376.92 902.359 1377.04 902.817 1377.04C903.639 1377.04 904.343 1376.55 904.929 1375.58V1369.57H906.401V1378ZM913.106 1369.38C913.405 1369.38 913.682 1369.41 913.938 1369.47L913.666 1370.91C913.41 1370.85 913.165 1370.82 912.93 1370.82C912.407 1370.82 911.986 1371.01 911.666 1371.39C911.346 1371.78 911.095 1372.37 910.914 1373.18V1378H909.442V1369.57H910.706L910.85 1371.28C911.074 1370.65 911.378 1370.18 911.762 1369.86C912.146 1369.54 912.594 1369.38 913.106 1369.38ZM919.278 1369.38C919.576 1369.38 919.854 1369.41 920.11 1369.47L919.838 1370.91C919.582 1370.85 919.336 1370.82 919.102 1370.82C918.579 1370.82 918.158 1371.01 917.838 1371.39C917.518 1371.78 917.267 1372.37 917.086 1373.18V1378H915.614V1369.57H916.878L917.022 1371.28C917.246 1370.65 917.55 1370.18 917.934 1369.86C918.318 1369.54 918.766 1369.38 919.278 1369.38ZM927.669 1373.54C927.669 1373.78 927.659 1374.03 927.637 1374.29H922.261C922.325 1375.22 922.56 1375.9 922.965 1376.34C923.371 1376.77 923.893 1376.99 924.533 1376.99C924.939 1376.99 925.312 1376.93 925.653 1376.82C925.995 1376.7 926.352 1376.51 926.725 1376.26L927.365 1377.14C926.469 1377.84 925.488 1378.19 924.421 1378.19C923.248 1378.19 922.331 1377.81 921.669 1377.04C921.019 1376.27 920.693 1375.22 920.693 1373.87C920.693 1373 920.832 1372.22 921.109 1371.55C921.397 1370.87 921.803 1370.34 922.325 1369.95C922.859 1369.57 923.483 1369.38 924.197 1369.38C925.317 1369.38 926.176 1369.74 926.773 1370.48C927.371 1371.22 927.669 1372.23 927.669 1373.54ZM926.213 1373.1C926.213 1372.27 926.048 1371.64 925.717 1371.2C925.387 1370.76 924.891 1370.54 924.229 1370.54C923.024 1370.54 922.368 1371.43 922.261 1373.2H926.213V1373.1ZM933.988 1369.38C934.756 1369.38 935.353 1369.61 935.78 1370.06C936.217 1370.52 936.436 1371.15 936.436 1371.95V1378H934.964V1372.16C934.964 1371.56 934.852 1371.14 934.628 1370.9C934.404 1370.65 934.073 1370.53 933.636 1370.53C933.188 1370.53 932.793 1370.66 932.452 1370.91C932.111 1371.17 931.791 1371.54 931.492 1372.02V1378H930.02V1369.57H931.284L931.412 1370.82C931.711 1370.37 932.079 1370.02 932.516 1369.76C932.964 1369.5 933.455 1369.38 933.988 1369.38ZM943.651 1377.62C943.096 1378 942.467 1378.19 941.763 1378.19C941.048 1378.19 940.488 1377.99 940.083 1377.58C939.688 1377.17 939.491 1376.57 939.491 1375.79V1370.7H938.019V1369.57H939.491V1367.66L940.963 1367.49V1369.57H942.963L942.803 1370.7H940.963V1375.73C940.963 1376.17 941.038 1376.49 941.187 1376.69C941.347 1376.88 941.608 1376.98 941.971 1376.98C942.302 1376.98 942.675 1376.86 943.091 1376.64L943.651 1377.62ZM951.011 1366.98V1376.67H955.539L955.363 1378H949.491V1366.98H951.011ZM960.141 1369.38C961.325 1369.38 962.242 1369.77 962.893 1370.56C963.554 1371.35 963.885 1372.42 963.885 1373.78C963.885 1374.65 963.736 1375.42 963.437 1376.1C963.138 1376.76 962.706 1377.27 962.141 1377.65C961.576 1378.01 960.904 1378.19 960.125 1378.19C958.941 1378.19 958.018 1377.8 957.357 1377.01C956.696 1376.22 956.365 1375.15 956.365 1373.79C956.365 1372.92 956.514 1372.15 956.813 1371.49C957.112 1370.82 957.544 1370.3 958.109 1369.94C958.674 1369.56 959.352 1369.38 960.141 1369.38ZM960.141 1370.56C958.68 1370.56 957.949 1371.64 957.949 1373.79C957.949 1375.94 958.674 1377.01 960.125 1377.01C961.576 1377.01 962.301 1375.93 962.301 1373.78C962.301 1371.63 961.581 1370.56 960.141 1370.56ZM969.389 1369.38C969.89 1369.38 970.349 1369.45 970.765 1369.6C971.181 1369.74 971.581 1369.97 971.965 1370.29L971.261 1371.22C970.962 1371 970.669 1370.85 970.381 1370.75C970.104 1370.65 969.794 1370.59 969.453 1370.59C968.77 1370.59 968.237 1370.86 967.853 1371.41C967.48 1371.95 967.293 1372.76 967.293 1373.82C967.293 1374.89 967.48 1375.68 967.853 1376.19C968.226 1376.69 968.76 1376.94 969.453 1376.94C969.784 1376.94 970.088 1376.9 970.365 1376.8C970.642 1376.69 970.952 1376.53 971.293 1376.3L971.965 1377.26C971.197 1377.88 970.338 1378.19 969.389 1378.19C968.248 1378.19 967.346 1377.81 966.685 1377.04C966.034 1376.27 965.709 1375.21 965.709 1373.86C965.709 1372.96 965.858 1372.18 966.157 1371.5C966.456 1370.83 966.877 1370.31 967.421 1369.94C967.976 1369.56 968.632 1369.38 969.389 1369.38ZM979.481 1376.03C979.481 1376.37 979.54 1376.63 979.657 1376.8C979.775 1376.96 979.951 1377.08 980.185 1377.17L979.849 1378.19C979.412 1378.14 979.06 1378.02 978.793 1377.82C978.527 1377.63 978.329 1377.33 978.201 1376.93C977.636 1377.77 976.799 1378.19 975.689 1378.19C974.857 1378.19 974.201 1377.96 973.721 1377.49C973.241 1377.02 973.001 1376.41 973.001 1375.65C973.001 1374.75 973.321 1374.06 973.961 1373.58C974.612 1373.1 975.529 1372.86 976.713 1372.86H978.009V1372.24C978.009 1371.64 977.865 1371.22 977.577 1370.96C977.289 1370.7 976.847 1370.58 976.249 1370.58C975.631 1370.58 974.873 1370.73 973.977 1371.02L973.609 1369.95C974.655 1369.57 975.625 1369.38 976.521 1369.38C977.513 1369.38 978.255 1369.62 978.745 1370.11C979.236 1370.59 979.481 1371.28 979.481 1372.18V1376.03ZM976.025 1377.09C976.868 1377.09 977.529 1376.65 978.009 1375.78V1373.84H976.905C975.348 1373.84 974.569 1374.42 974.569 1375.57C974.569 1376.07 974.692 1376.45 974.937 1376.7C975.183 1376.96 975.545 1377.09 976.025 1377.09ZM986.76 1377.62C986.206 1378 985.576 1378.19 984.872 1378.19C984.158 1378.19 983.598 1377.99 983.192 1377.58C982.798 1377.17 982.6 1376.57 982.6 1375.79V1370.7H981.128V1369.57H982.6V1367.66L984.072 1367.49V1369.57H986.072L985.912 1370.7H984.072V1375.73C984.072 1376.17 984.147 1376.49 984.296 1376.69C984.456 1376.88 984.718 1376.98 985.08 1376.98C985.411 1376.98 985.784 1376.86 986.2 1376.64L986.76 1377.62ZM989.758 1369.57V1378H988.286V1369.57H989.758ZM989.006 1365.52C989.315 1365.52 989.566 1365.62 989.758 1365.81C989.95 1366 990.046 1366.24 990.046 1366.53C990.046 1366.82 989.95 1367.06 989.758 1367.25C989.566 1367.43 989.315 1367.52 989.006 1367.52C988.707 1367.52 988.462 1367.43 988.27 1367.25C988.078 1367.06 987.982 1366.82 987.982 1366.53C987.982 1366.24 988.078 1366 988.27 1365.81C988.462 1365.62 988.707 1365.52 989.006 1365.52ZM995.969 1369.38C997.153 1369.38 998.071 1369.77 998.721 1370.56C999.383 1371.35 999.713 1372.42 999.713 1373.78C999.713 1374.65 999.564 1375.42 999.265 1376.1C998.967 1376.76 998.535 1377.27 997.969 1377.65C997.404 1378.01 996.732 1378.19 995.953 1378.19C994.769 1378.19 993.847 1377.8 993.185 1377.01C992.524 1376.22 992.193 1375.15 992.193 1373.79C992.193 1372.92 992.343 1372.15 992.641 1371.49C992.94 1370.82 993.372 1370.3 993.937 1369.94C994.503 1369.56 995.18 1369.38 995.969 1369.38ZM995.969 1370.56C994.508 1370.56 993.777 1371.64 993.777 1373.79C993.777 1375.94 994.503 1377.01 995.953 1377.01C997.404 1377.01 998.129 1375.93 998.129 1373.78C998.129 1371.63 997.409 1370.56 995.969 1370.56ZM1006.11 1369.38C1006.88 1369.38 1007.48 1369.61 1007.91 1370.06C1008.34 1370.52 1008.56 1371.15 1008.56 1371.95V1378H1007.09V1372.16C1007.09 1371.56 1006.98 1371.14 1006.75 1370.9C1006.53 1370.65 1006.2 1370.53 1005.76 1370.53C1005.31 1370.53 1004.92 1370.66 1004.58 1370.91C1004.24 1371.17 1003.92 1371.54 1003.62 1372.02V1378H1002.15V1369.57H1003.41L1003.54 1370.82C1003.84 1370.37 1004.2 1370.02 1004.64 1369.76C1005.09 1369.5 1005.58 1369.38 1006.11 1369.38Z" fill="white"/>
<path d="M486.378 1075.78C487.039 1075.78 487.594 1075.87 488.042 1076.04C488.501 1076.21 488.965 1076.49 489.434 1076.87L488.602 1077.85C487.93 1077.3 487.221 1077.03 486.474 1077.03C485.557 1077.03 484.815 1077.38 484.25 1078.09C483.695 1078.79 483.418 1079.92 483.418 1081.48C483.418 1082.99 483.695 1084.11 484.25 1084.84C484.805 1085.55 485.541 1085.91 486.458 1085.91C486.927 1085.91 487.338 1085.83 487.69 1085.67C488.042 1085.51 488.415 1085.29 488.81 1085L489.562 1085.96C489.221 1086.31 488.783 1086.61 488.25 1086.84C487.717 1087.07 487.103 1087.19 486.41 1087.19C485.514 1087.19 484.714 1086.97 484.01 1086.54C483.317 1086.09 482.773 1085.44 482.378 1084.58C481.994 1083.72 481.802 1082.69 481.802 1081.48C481.802 1080.27 482.005 1079.25 482.41 1078.39C482.815 1077.53 483.365 1076.88 484.058 1076.44C484.751 1076 485.525 1075.78 486.378 1075.78ZM497.401 1087H496.137L496.025 1085.69C495.705 1086.21 495.337 1086.59 494.921 1086.84C494.505 1087.07 493.999 1087.19 493.401 1087.19C492.665 1087.19 492.089 1086.97 491.673 1086.52C491.257 1086.07 491.049 1085.44 491.049 1084.62V1078.57H492.521V1084.46C492.521 1085.03 492.623 1085.44 492.825 1085.69C493.028 1085.92 493.359 1086.04 493.817 1086.04C494.639 1086.04 495.343 1085.55 495.929 1084.58V1078.57H497.401V1087ZM504.106 1078.38C504.405 1078.38 504.682 1078.41 504.938 1078.47L504.666 1079.91C504.41 1079.85 504.165 1079.82 503.93 1079.82C503.407 1079.82 502.986 1080.01 502.666 1080.39C502.346 1080.78 502.095 1081.37 501.914 1082.18V1087H500.442V1078.57H501.706L501.85 1080.28C502.074 1079.65 502.378 1079.18 502.762 1078.86C503.146 1078.54 503.594 1078.38 504.106 1078.38ZM510.278 1078.38C510.576 1078.38 510.854 1078.41 511.11 1078.47L510.838 1079.91C510.582 1079.85 510.336 1079.82 510.102 1079.82C509.579 1079.82 509.158 1080.01 508.838 1080.39C508.518 1080.78 508.267 1081.37 508.086 1082.18V1087H506.614V1078.57H507.878L508.022 1080.28C508.246 1079.65 508.55 1079.18 508.934 1078.86C509.318 1078.54 509.766 1078.38 510.278 1078.38ZM518.669 1082.54C518.669 1082.78 518.659 1083.03 518.637 1083.29H513.261C513.325 1084.22 513.56 1084.9 513.965 1085.34C514.371 1085.77 514.893 1085.99 515.533 1085.99C515.939 1085.99 516.312 1085.93 516.653 1085.82C516.995 1085.7 517.352 1085.51 517.725 1085.26L518.365 1086.14C517.469 1086.84 516.488 1087.19 515.421 1087.19C514.248 1087.19 513.331 1086.81 512.669 1086.04C512.019 1085.27 511.693 1084.22 511.693 1082.87C511.693 1082 511.832 1081.22 512.109 1080.55C512.397 1079.87 512.803 1079.34 513.325 1078.95C513.859 1078.57 514.483 1078.38 515.197 1078.38C516.317 1078.38 517.176 1078.74 517.773 1079.48C518.371 1080.22 518.669 1081.23 518.669 1082.54ZM517.213 1082.1C517.213 1081.27 517.048 1080.64 516.717 1080.2C516.387 1079.76 515.891 1079.54 515.229 1079.54C514.024 1079.54 513.368 1080.43 513.261 1082.2H517.213V1082.1ZM524.988 1078.38C525.756 1078.38 526.353 1078.61 526.78 1079.06C527.217 1079.52 527.436 1080.15 527.436 1080.95V1087H525.964V1081.16C525.964 1080.56 525.852 1080.14 525.628 1079.9C525.404 1079.65 525.073 1079.53 524.636 1079.53C524.188 1079.53 523.793 1079.66 523.452 1079.91C523.111 1080.17 522.791 1080.54 522.492 1081.02V1087H521.02V1078.57H522.284L522.412 1079.82C522.711 1079.37 523.079 1079.02 523.516 1078.76C523.964 1078.5 524.455 1078.38 524.988 1078.38ZM534.651 1086.62C534.096 1087 533.467 1087.19 532.763 1087.19C532.048 1087.19 531.488 1086.99 531.083 1086.58C530.688 1086.17 530.491 1085.57 530.491 1084.79V1079.7H529.019V1078.57H530.491V1076.66L531.963 1076.49V1078.57H533.963L533.803 1079.7H531.963V1084.73C531.963 1085.17 532.038 1085.49 532.187 1085.69C532.347 1085.88 532.608 1085.98 532.971 1085.98C533.302 1085.98 533.675 1085.86 534.091 1085.64L534.651 1086.62ZM542.011 1075.98V1085.67H546.539L546.363 1087H540.491V1075.98H542.011ZM551.141 1078.38C552.325 1078.38 553.242 1078.77 553.893 1079.56C554.554 1080.35 554.885 1081.42 554.885 1082.78C554.885 1083.65 554.736 1084.42 554.437 1085.1C554.138 1085.76 553.706 1086.27 553.141 1086.65C552.576 1087.01 551.904 1087.19 551.125 1087.19C549.941 1087.19 549.018 1086.8 548.357 1086.01C547.696 1085.22 547.365 1084.15 547.365 1082.79C547.365 1081.92 547.514 1081.15 547.813 1080.49C548.112 1079.82 548.544 1079.3 549.109 1078.94C549.674 1078.56 550.352 1078.38 551.141 1078.38ZM551.141 1079.56C549.68 1079.56 548.949 1080.64 548.949 1082.79C548.949 1084.94 549.674 1086.01 551.125 1086.01C552.576 1086.01 553.301 1084.93 553.301 1082.78C553.301 1080.63 552.581 1079.56 551.141 1079.56ZM560.389 1078.38C560.89 1078.38 561.349 1078.45 561.765 1078.6C562.181 1078.74 562.581 1078.97 562.965 1079.29L562.261 1080.22C561.962 1080 561.669 1079.85 561.381 1079.75C561.104 1079.65 560.794 1079.59 560.453 1079.59C559.77 1079.59 559.237 1079.86 558.853 1080.41C558.48 1080.95 558.293 1081.76 558.293 1082.82C558.293 1083.89 558.48 1084.68 558.853 1085.19C559.226 1085.69 559.76 1085.94 560.453 1085.94C560.784 1085.94 561.088 1085.9 561.365 1085.8C561.642 1085.69 561.952 1085.53 562.293 1085.3L562.965 1086.26C562.197 1086.88 561.338 1087.19 560.389 1087.19C559.248 1087.19 558.346 1086.81 557.685 1086.04C557.034 1085.27 556.709 1084.21 556.709 1082.86C556.709 1081.96 556.858 1081.18 557.157 1080.5C557.456 1079.83 557.877 1079.31 558.421 1078.94C558.976 1078.56 559.632 1078.38 560.389 1078.38ZM570.481 1085.03C570.481 1085.37 570.54 1085.63 570.657 1085.8C570.775 1085.96 570.951 1086.08 571.185 1086.17L570.849 1087.19C570.412 1087.14 570.06 1087.02 569.793 1086.82C569.527 1086.63 569.329 1086.33 569.201 1085.93C568.636 1086.77 567.799 1087.19 566.689 1087.19C565.857 1087.19 565.201 1086.96 564.721 1086.49C564.241 1086.02 564.001 1085.41 564.001 1084.65C564.001 1083.75 564.321 1083.06 564.961 1082.58C565.612 1082.1 566.529 1081.86 567.713 1081.86H569.009V1081.24C569.009 1080.64 568.865 1080.22 568.577 1079.96C568.289 1079.7 567.847 1079.58 567.249 1079.58C566.631 1079.58 565.873 1079.73 564.977 1080.02L564.609 1078.95C565.655 1078.57 566.625 1078.38 567.521 1078.38C568.513 1078.38 569.255 1078.62 569.745 1079.11C570.236 1079.59 570.481 1080.28 570.481 1081.18V1085.03ZM567.025 1086.09C567.868 1086.09 568.529 1085.65 569.009 1084.78V1082.84H567.905C566.348 1082.84 565.569 1083.42 565.569 1084.57C565.569 1085.07 565.692 1085.45 565.937 1085.7C566.183 1085.96 566.545 1086.09 567.025 1086.09ZM577.76 1086.62C577.206 1087 576.576 1087.19 575.872 1087.19C575.158 1087.19 574.598 1086.99 574.192 1086.58C573.798 1086.17 573.6 1085.57 573.6 1084.79V1079.7H572.128V1078.57H573.6V1076.66L575.072 1076.49V1078.57H577.072L576.912 1079.7H575.072V1084.73C575.072 1085.17 575.147 1085.49 575.296 1085.69C575.456 1085.88 575.718 1085.98 576.08 1085.98C576.411 1085.98 576.784 1085.86 577.2 1085.64L577.76 1086.62ZM580.758 1078.57V1087H579.286V1078.57H580.758ZM580.006 1074.52C580.315 1074.52 580.566 1074.62 580.758 1074.81C580.95 1075 581.046 1075.24 581.046 1075.53C581.046 1075.82 580.95 1076.06 580.758 1076.25C580.566 1076.43 580.315 1076.52 580.006 1076.52C579.707 1076.52 579.462 1076.43 579.27 1076.25C579.078 1076.06 578.982 1075.82 578.982 1075.53C578.982 1075.24 579.078 1075 579.27 1074.81C579.462 1074.62 579.707 1074.52 580.006 1074.52ZM586.969 1078.38C588.153 1078.38 589.071 1078.77 589.721 1079.56C590.383 1080.35 590.713 1081.42 590.713 1082.78C590.713 1083.65 590.564 1084.42 590.265 1085.1C589.967 1085.76 589.535 1086.27 588.969 1086.65C588.404 1087.01 587.732 1087.19 586.953 1087.19C585.769 1087.19 584.847 1086.8 584.185 1086.01C583.524 1085.22 583.193 1084.15 583.193 1082.79C583.193 1081.92 583.343 1081.15 583.641 1080.49C583.94 1079.82 584.372 1079.3 584.937 1078.94C585.503 1078.56 586.18 1078.38 586.969 1078.38ZM586.969 1079.56C585.508 1079.56 584.777 1080.64 584.777 1082.79C584.777 1084.94 585.503 1086.01 586.953 1086.01C588.404 1086.01 589.129 1084.93 589.129 1082.78C589.129 1080.63 588.409 1079.56 586.969 1079.56ZM597.113 1078.38C597.881 1078.38 598.478 1078.61 598.905 1079.06C599.342 1079.52 599.561 1080.15 599.561 1080.95V1087H598.089V1081.16C598.089 1080.56 597.977 1080.14 597.753 1079.9C597.529 1079.65 597.198 1079.53 596.761 1079.53C596.313 1079.53 595.918 1079.66 595.577 1079.91C595.236 1080.17 594.916 1080.54 594.617 1081.02V1087H593.145V1078.57H594.409L594.537 1079.82C594.836 1079.37 595.204 1079.02 595.641 1078.76C596.089 1078.5 596.58 1078.38 597.113 1078.38Z" fill="white"/>
<path d="M356.378 770.784C357.039 770.784 357.594 770.869 358.042 771.04C358.501 771.211 358.965 771.488 359.434 771.872L358.602 772.848C357.93 772.304 357.221 772.032 356.474 772.032C355.557 772.032 354.815 772.384 354.25 773.088C353.695 773.792 353.418 774.923 353.418 776.48C353.418 777.995 353.695 779.115 354.25 779.84C354.805 780.555 355.541 780.912 356.458 780.912C356.927 780.912 357.338 780.832 357.69 780.672C358.042 780.512 358.415 780.288 358.81 780L359.562 780.96C359.221 781.312 358.783 781.605 358.25 781.84C357.717 782.075 357.103 782.192 356.41 782.192C355.514 782.192 354.714 781.973 354.01 781.536C353.317 781.088 352.773 780.437 352.378 779.584C351.994 778.72 351.802 777.685 351.802 776.48C351.802 775.275 352.005 774.245 352.41 773.392C352.815 772.528 353.365 771.877 354.058 771.44C354.751 771.003 355.525 770.784 356.378 770.784ZM367.401 782H366.137L366.025 780.688C365.705 781.211 365.337 781.595 364.921 781.84C364.505 782.075 363.999 782.192 363.401 782.192C362.665 782.192 362.089 781.968 361.673 781.52C361.257 781.072 361.049 780.437 361.049 779.616V773.568H362.521V779.456C362.521 780.032 362.623 780.443 362.825 780.688C363.028 780.923 363.359 781.04 363.817 781.04C364.639 781.04 365.343 780.555 365.929 779.584V773.568H367.401V782ZM374.106 773.376C374.405 773.376 374.682 773.408 374.938 773.472L374.666 774.912C374.41 774.848 374.165 774.816 373.93 774.816C373.407 774.816 372.986 775.008 372.666 775.392C372.346 775.776 372.095 776.373 371.914 777.184V782H370.442V773.568H371.706L371.85 775.28C372.074 774.651 372.378 774.176 372.762 773.856C373.146 773.536 373.594 773.376 374.106 773.376ZM380.278 773.376C380.576 773.376 380.854 773.408 381.11 773.472L380.838 774.912C380.582 774.848 380.336 774.816 380.102 774.816C379.579 774.816 379.158 775.008 378.838 775.392C378.518 775.776 378.267 776.373 378.086 777.184V782H376.614V773.568H377.878L378.022 775.28C378.246 774.651 378.55 774.176 378.934 773.856C379.318 773.536 379.766 773.376 380.278 773.376ZM388.669 777.536C388.669 777.781 388.659 778.032 388.637 778.288H383.261C383.325 779.216 383.56 779.899 383.965 780.336C384.371 780.773 384.893 780.992 385.533 780.992C385.939 780.992 386.312 780.933 386.653 780.816C386.995 780.699 387.352 780.512 387.725 780.256L388.365 781.136C387.469 781.84 386.488 782.192 385.421 782.192C384.248 782.192 383.331 781.808 382.669 781.04C382.019 780.272 381.693 779.216 381.693 777.872C381.693 776.997 381.832 776.224 382.109 775.552C382.397 774.869 382.803 774.336 383.325 773.952C383.859 773.568 384.483 773.376 385.197 773.376C386.317 773.376 387.176 773.744 387.773 774.48C388.371 775.216 388.669 776.235 388.669 777.536ZM387.213 777.104C387.213 776.272 387.048 775.637 386.717 775.2C386.387 774.763 385.891 774.544 385.229 774.544C384.024 774.544 383.368 775.429 383.261 777.2H387.213V777.104ZM394.988 773.376C395.756 773.376 396.353 773.605 396.78 774.064C397.217 774.523 397.436 775.152 397.436 775.952V782H395.964V776.16C395.964 775.563 395.852 775.141 395.628 774.896C395.404 774.651 395.073 774.528 394.636 774.528C394.188 774.528 393.793 774.656 393.452 774.912C393.111 775.168 392.791 775.536 392.492 776.016V782H391.02V773.568H392.284L392.412 774.816C392.711 774.368 393.079 774.016 393.516 773.76C393.964 773.504 394.455 773.376 394.988 773.376ZM404.651 781.616C404.096 782 403.467 782.192 402.763 782.192C402.048 782.192 401.488 781.989 401.083 781.584C400.688 781.168 400.491 780.571 400.491 779.792V774.704H399.019V773.568H400.491V771.664L401.963 771.488V773.568H403.963L403.803 774.704H401.963V779.728C401.963 780.165 402.038 780.485 402.187 780.688C402.347 780.88 402.608 780.976 402.971 780.976C403.302 780.976 403.675 780.864 404.091 780.64L404.651 781.616ZM412.011 770.976V780.672H416.539L416.363 782H410.491V770.976H412.011ZM421.141 773.376C422.325 773.376 423.242 773.771 423.893 774.56C424.554 775.349 424.885 776.421 424.885 777.776C424.885 778.651 424.736 779.424 424.437 780.096C424.138 780.757 423.706 781.275 423.141 781.648C422.576 782.011 421.904 782.192 421.125 782.192C419.941 782.192 419.018 781.797 418.357 781.008C417.696 780.219 417.365 779.147 417.365 777.792C417.365 776.917 417.514 776.149 417.813 775.488C418.112 774.816 418.544 774.299 419.109 773.936C419.674 773.563 420.352 773.376 421.141 773.376ZM421.141 774.56C419.68 774.56 418.949 775.637 418.949 777.792C418.949 779.936 419.674 781.008 421.125 781.008C422.576 781.008 423.301 779.931 423.301 777.776C423.301 775.632 422.581 774.56 421.141 774.56ZM430.389 773.376C430.89 773.376 431.349 773.451 431.765 773.6C432.181 773.739 432.581 773.968 432.965 774.288L432.261 775.216C431.962 775.003 431.669 774.848 431.381 774.752C431.104 774.645 430.794 774.592 430.453 774.592C429.77 774.592 429.237 774.864 428.853 775.408C428.48 775.952 428.293 776.757 428.293 777.824C428.293 778.891 428.48 779.68 428.853 780.192C429.226 780.693 429.76 780.944 430.453 780.944C430.784 780.944 431.088 780.896 431.365 780.8C431.642 780.693 431.952 780.528 432.293 780.304L432.965 781.264C432.197 781.883 431.338 782.192 430.389 782.192C429.248 782.192 428.346 781.808 427.685 781.04C427.034 780.272 426.709 779.211 426.709 777.856C426.709 776.96 426.858 776.176 427.157 775.504C427.456 774.832 427.877 774.309 428.421 773.936C428.976 773.563 429.632 773.376 430.389 773.376ZM440.481 780.032C440.481 780.373 440.54 780.629 440.657 780.8C440.775 780.96 440.951 781.083 441.185 781.168L440.849 782.192C440.412 782.139 440.06 782.016 439.793 781.824C439.527 781.632 439.329 781.333 439.201 780.928C438.636 781.771 437.799 782.192 436.689 782.192C435.857 782.192 435.201 781.957 434.721 781.488C434.241 781.019 434.001 780.405 434.001 779.648C434.001 778.752 434.321 778.064 434.961 777.584C435.612 777.104 436.529 776.864 437.713 776.864H439.009V776.24C439.009 775.643 438.865 775.216 438.577 774.96C438.289 774.704 437.847 774.576 437.249 774.576C436.631 774.576 435.873 774.725 434.977 775.024L434.609 773.952C435.655 773.568 436.625 773.376 437.521 773.376C438.513 773.376 439.255 773.621 439.745 774.112C440.236 774.592 440.481 775.28 440.481 776.176V780.032ZM437.025 781.088C437.868 781.088 438.529 780.651 439.009 779.776V777.84H437.905C436.348 777.84 435.569 778.416 435.569 779.568C435.569 780.069 435.692 780.448 435.937 780.704C436.183 780.96 436.545 781.088 437.025 781.088ZM447.76 781.616C447.206 782 446.576 782.192 445.872 782.192C445.158 782.192 444.598 781.989 444.192 781.584C443.798 781.168 443.6 780.571 443.6 779.792V774.704H442.128V773.568H443.6V771.664L445.072 771.488V773.568H447.072L446.912 774.704H445.072V779.728C445.072 780.165 445.147 780.485 445.296 780.688C445.456 780.88 445.718 780.976 446.08 780.976C446.411 780.976 446.784 780.864 447.2 780.64L447.76 781.616ZM450.758 773.568V782H449.286V773.568H450.758ZM450.006 769.52C450.315 769.52 450.566 769.616 450.758 769.808C450.95 770 451.046 770.24 451.046 770.528C451.046 770.816 450.95 771.056 450.758 771.248C450.566 771.429 450.315 771.52 450.006 771.52C449.707 771.52 449.462 771.429 449.27 771.248C449.078 771.056 448.982 770.816 448.982 770.528C448.982 770.24 449.078 770 449.27 769.808C449.462 769.616 449.707 769.52 450.006 769.52ZM456.969 773.376C458.153 773.376 459.071 773.771 459.721 774.56C460.383 775.349 460.713 776.421 460.713 777.776C460.713 778.651 460.564 779.424 460.265 780.096C459.967 780.757 459.535 781.275 458.969 781.648C458.404 782.011 457.732 782.192 456.953 782.192C455.769 782.192 454.847 781.797 454.185 781.008C453.524 780.219 453.193 779.147 453.193 777.792C453.193 776.917 453.343 776.149 453.641 775.488C453.94 774.816 454.372 774.299 454.937 773.936C455.503 773.563 456.18 773.376 456.969 773.376ZM456.969 774.56C455.508 774.56 454.777 775.637 454.777 777.792C454.777 779.936 455.503 781.008 456.953 781.008C458.404 781.008 459.129 779.931 459.129 777.776C459.129 775.632 458.409 774.56 456.969 774.56ZM467.113 773.376C467.881 773.376 468.478 773.605 468.905 774.064C469.342 774.523 469.561 775.152 469.561 775.952V782H468.089V776.16C468.089 775.563 467.977 775.141 467.753 774.896C467.529 774.651 467.198 774.528 466.761 774.528C466.313 774.528 465.918 774.656 465.577 774.912C465.236 775.168 464.916 775.536 464.617 776.016V782H463.145V773.568H464.409L464.537 774.816C464.836 774.368 465.204 774.016 465.641 773.76C466.089 773.504 466.58 773.376 467.113 773.376Z" fill="white"/>
<path d="M282.378 386.615C283.039 386.615 283.594 386.7 284.042 386.871C284.501 387.041 284.965 387.319 285.434 387.703L284.602 388.679C283.93 388.135 283.221 387.863 282.474 387.863C281.557 387.863 280.815 388.215 280.25 388.919C279.695 389.623 279.418 390.753 279.418 392.311C279.418 393.825 279.695 394.945 280.25 395.671C280.805 396.385 281.541 396.743 282.458 396.743C282.927 396.743 283.338 396.663 283.69 396.503C284.042 396.343 284.415 396.119 284.81 395.831L285.562 396.791C285.221 397.143 284.783 397.436 284.25 397.671C283.717 397.905 283.103 398.023 282.41 398.023C281.514 398.023 280.714 397.804 280.01 397.367C279.317 396.919 278.773 396.268 278.378 395.415C277.994 394.551 277.802 393.516 277.802 392.311C277.802 391.105 278.005 390.076 278.41 389.223C278.815 388.359 279.365 387.708 280.058 387.271C280.751 386.833 281.525 386.615 282.378 386.615ZM293.401 397.831H292.137L292.025 396.519C291.705 397.041 291.337 397.425 290.921 397.671C290.505 397.905 289.999 398.023 289.401 398.023C288.665 398.023 288.089 397.799 287.673 397.351C287.257 396.903 287.049 396.268 287.049 395.447V389.399H288.521V395.287C288.521 395.863 288.623 396.273 288.825 396.519C289.028 396.753 289.359 396.871 289.817 396.871C290.639 396.871 291.343 396.385 291.929 395.415V389.399H293.401V397.831ZM300.106 389.207C300.405 389.207 300.682 389.239 300.938 389.303L300.666 390.743C300.41 390.679 300.165 390.647 299.93 390.647C299.407 390.647 298.986 390.839 298.666 391.223C298.346 391.607 298.095 392.204 297.914 393.015V397.831H296.442V389.399H297.706L297.85 391.111C298.074 390.481 298.378 390.007 298.762 389.687C299.146 389.367 299.594 389.207 300.106 389.207ZM306.278 389.207C306.576 389.207 306.854 389.239 307.11 389.303L306.838 390.743C306.582 390.679 306.336 390.647 306.102 390.647C305.579 390.647 305.158 390.839 304.838 391.223C304.518 391.607 304.267 392.204 304.086 393.015V397.831H302.614V389.399H303.878L304.022 391.111C304.246 390.481 304.55 390.007 304.934 389.687C305.318 389.367 305.766 389.207 306.278 389.207ZM314.669 393.367C314.669 393.612 314.659 393.863 314.637 394.119H309.261C309.325 395.047 309.56 395.729 309.965 396.167C310.371 396.604 310.893 396.823 311.533 396.823C311.939 396.823 312.312 396.764 312.653 396.647C312.995 396.529 313.352 396.343 313.725 396.087L314.365 396.967C313.469 397.671 312.488 398.023 311.421 398.023C310.248 398.023 309.331 397.639 308.669 396.871C308.019 396.103 307.693 395.047 307.693 393.703C307.693 392.828 307.832 392.055 308.109 391.383C308.397 390.7 308.803 390.167 309.325 389.783C309.859 389.399 310.483 389.207 311.197 389.207C312.317 389.207 313.176 389.575 313.773 390.311C314.371 391.047 314.669 392.065 314.669 393.367ZM313.213 392.935C313.213 392.103 313.048 391.468 312.717 391.031C312.387 390.593 311.891 390.375 311.229 390.375C310.024 390.375 309.368 391.26 309.261 393.031H313.213V392.935ZM320.988 389.207C321.756 389.207 322.353 389.436 322.78 389.895C323.217 390.353 323.436 390.983 323.436 391.783V397.831H321.964V391.991C321.964 391.393 321.852 390.972 321.628 390.727C321.404 390.481 321.073 390.359 320.636 390.359C320.188 390.359 319.793 390.487 319.452 390.743C319.111 390.999 318.791 391.367 318.492 391.847V397.831H317.02V389.399H318.284L318.412 390.647C318.711 390.199 319.079 389.847 319.516 389.591C319.964 389.335 320.455 389.207 320.988 389.207ZM330.651 397.447C330.096 397.831 329.467 398.023 328.763 398.023C328.048 398.023 327.488 397.82 327.083 397.415C326.688 396.999 326.491 396.401 326.491 395.623V390.535H325.019V389.399H326.491V387.495L327.963 387.319V389.399H329.963L329.803 390.535H327.963V395.559C327.963 395.996 328.038 396.316 328.187 396.519C328.347 396.711 328.608 396.807 328.971 396.807C329.302 396.807 329.675 396.695 330.091 396.471L330.651 397.447ZM338.011 386.807V396.503H342.539L342.363 397.831H336.491V386.807H338.011ZM347.141 389.207C348.325 389.207 349.242 389.601 349.893 390.391C350.554 391.18 350.885 392.252 350.885 393.607C350.885 394.481 350.736 395.255 350.437 395.927C350.138 396.588 349.706 397.105 349.141 397.479C348.576 397.841 347.904 398.023 347.125 398.023C345.941 398.023 345.018 397.628 344.357 396.839C343.696 396.049 343.365 394.977 343.365 393.623C343.365 392.748 343.514 391.98 343.813 391.319C344.112 390.647 344.544 390.129 345.109 389.767C345.674 389.393 346.352 389.207 347.141 389.207ZM347.141 390.391C345.68 390.391 344.949 391.468 344.949 393.623C344.949 395.767 345.674 396.839 347.125 396.839C348.576 396.839 349.301 395.761 349.301 393.607C349.301 391.463 348.581 390.391 347.141 390.391ZM356.389 389.207C356.89 389.207 357.349 389.281 357.765 389.431C358.181 389.569 358.581 389.799 358.965 390.119L358.261 391.047C357.962 390.833 357.669 390.679 357.381 390.583C357.104 390.476 356.794 390.423 356.453 390.423C355.77 390.423 355.237 390.695 354.853 391.239C354.48 391.783 354.293 392.588 354.293 393.655C354.293 394.721 354.48 395.511 354.853 396.023C355.226 396.524 355.76 396.775 356.453 396.775C356.784 396.775 357.088 396.727 357.365 396.631C357.642 396.524 357.952 396.359 358.293 396.135L358.965 397.095C358.197 397.713 357.338 398.023 356.389 398.023C355.248 398.023 354.346 397.639 353.685 396.871C353.034 396.103 352.709 395.041 352.709 393.687C352.709 392.791 352.858 392.007 353.157 391.335C353.456 390.663 353.877 390.14 354.421 389.767C354.976 389.393 355.632 389.207 356.389 389.207ZM366.481 395.863C366.481 396.204 366.54 396.46 366.657 396.631C366.775 396.791 366.951 396.913 367.185 396.999L366.849 398.023C366.412 397.969 366.06 397.847 365.793 397.655C365.527 397.463 365.329 397.164 365.201 396.759C364.636 397.601 363.799 398.023 362.689 398.023C361.857 398.023 361.201 397.788 360.721 397.319C360.241 396.849 360.001 396.236 360.001 395.479C360.001 394.583 360.321 393.895 360.961 393.415C361.612 392.935 362.529 392.695 363.713 392.695H365.009V392.071C365.009 391.473 364.865 391.047 364.577 390.791C364.289 390.535 363.847 390.407 363.249 390.407C362.631 390.407 361.873 390.556 360.977 390.855L360.609 389.783C361.655 389.399 362.625 389.207 363.521 389.207C364.513 389.207 365.255 389.452 365.745 389.943C366.236 390.423 366.481 391.111 366.481 392.007V395.863ZM363.025 396.919C363.868 396.919 364.529 396.481 365.009 395.607V393.671H363.905C362.348 393.671 361.569 394.247 361.569 395.399C361.569 395.9 361.692 396.279 361.937 396.535C362.183 396.791 362.545 396.919 363.025 396.919ZM373.76 397.447C373.206 397.831 372.576 398.023 371.872 398.023C371.158 398.023 370.598 397.82 370.192 397.415C369.798 396.999 369.6 396.401 369.6 395.623V390.535H368.128V389.399H369.6V387.495L371.072 387.319V389.399H373.072L372.912 390.535H371.072V395.559C371.072 395.996 371.147 396.316 371.296 396.519C371.456 396.711 371.718 396.807 372.08 396.807C372.411 396.807 372.784 396.695 373.2 396.471L373.76 397.447ZM376.758 389.399V397.831H375.286V389.399H376.758ZM376.006 385.351C376.315 385.351 376.566 385.447 376.758 385.639C376.95 385.831 377.046 386.071 377.046 386.359C377.046 386.647 376.95 386.887 376.758 387.079C376.566 387.26 376.315 387.351 376.006 387.351C375.707 387.351 375.462 387.26 375.27 387.079C375.078 386.887 374.982 386.647 374.982 386.359C374.982 386.071 375.078 385.831 375.27 385.639C375.462 385.447 375.707 385.351 376.006 385.351ZM382.969 389.207C384.153 389.207 385.071 389.601 385.721 390.391C386.383 391.18 386.713 392.252 386.713 393.607C386.713 394.481 386.564 395.255 386.265 395.927C385.967 396.588 385.535 397.105 384.969 397.479C384.404 397.841 383.732 398.023 382.953 398.023C381.769 398.023 380.847 397.628 380.185 396.839C379.524 396.049 379.193 394.977 379.193 393.623C379.193 392.748 379.343 391.98 379.641 391.319C379.94 390.647 380.372 390.129 380.937 389.767C381.503 389.393 382.18 389.207 382.969 389.207ZM382.969 390.391C381.508 390.391 380.777 391.468 380.777 393.623C380.777 395.767 381.503 396.839 382.953 396.839C384.404 396.839 385.129 395.761 385.129 393.607C385.129 391.463 384.409 390.391 382.969 390.391ZM393.113 389.207C393.881 389.207 394.478 389.436 394.905 389.895C395.342 390.353 395.561 390.983 395.561 391.783V397.831H394.089V391.991C394.089 391.393 393.977 390.972 393.753 390.727C393.529 390.481 393.198 390.359 392.761 390.359C392.313 390.359 391.918 390.487 391.577 390.743C391.236 390.999 390.916 391.367 390.617 391.847V397.831H389.145V389.399H390.409L390.537 390.647C390.836 390.199 391.204 389.847 391.641 389.591C392.089 389.335 392.58 389.207 393.113 389.207Z" fill="white"/>
</svg>
